<svg width="378" height="160" viewBox="0 0 378 160" fill="none" xmlns="http://www.w3.org/2000/svg">
<path d="M46.0709 57V13.2H41.3909V57H35.8109V7.62H51.5909V57H46.0709ZM65.6314 49.08C65.3114 50.72 64.9314 52.06 64.4914 53.1C64.0514 54.1 63.4314 54.9 62.6314 55.5C61.8714 56.06 60.8714 56.46 59.6314 56.7C58.4314 56.9 56.9114 57 55.0714 57H54.4714V51.48H55.0714C55.8314 51.48 56.5114 51.44 57.1114 51.36C57.7514 51.28 58.2914 51.12 58.7314 50.88C59.2114 50.64 59.5914 50.28 59.8714 49.8C60.1914 49.32 60.4314 48.68 60.5914 47.88L61.7914 41.64L54.1714 7.62H60.2314L64.1914 30.54L67.9714 7.62H73.3714L65.6314 49.08ZM86.2077 57V34.62H81.5277V57H76.0077V7.62H81.5277V29.1H86.2077V7.62H91.7277V57H86.2077ZM108.348 57C107.108 52.88 105.928 48.88 104.808 45C103.688 41.08 102.548 37.12 101.388 33.12C101.468 35.16 101.508 37.26 101.508 39.42C101.508 41.54 101.508 43.94 101.508 46.62V57H95.9281V7.62H101.508V17.82C101.508 20.26 101.508 22.3 101.508 23.94C101.508 25.54 101.468 27.1 101.388 28.62C102.508 24.98 103.628 21.46 104.748 18.06C105.868 14.62 107.008 11.14 108.168 7.62H114.108L106.188 29.88L114.708 57H108.348ZM120.623 57V13.2H115.463V7.62H131.303V13.2H126.143V57H120.623ZM152.36 57V13.2H147.68V57H142.1V7.62H157.88V57H152.36ZM173.06 16.5C173.06 15.38 172.82 14.56 172.34 14.04C171.86 13.48 171.06 13.2 169.94 13.2H167.66V28.14H170C172.04 28.14 173.06 27.04 173.06 24.84V16.5ZM162.14 57V7.62H169.94C172.94 7.62 175.12 8.34 176.48 9.78C177.84 11.18 178.52 13.44 178.52 16.56V24.66C178.52 27.78 177.82 30.04 176.42 31.44C175.06 32.84 172.92 33.54 170 33.54H167.66V57H162.14ZM181.475 57V7.62H186.515V38.76L190.835 7.62H197.255V57H192.155V25.32L186.815 57H181.475ZM211.115 37.32C211.115 36.36 210.935 35.64 210.575 35.16C210.255 34.68 209.635 34.44 208.715 34.44H206.255V29.22H208.955C209.795 29.22 210.355 28.98 210.635 28.5C210.915 27.98 211.055 27.26 211.055 26.34V15.54C211.055 14.54 210.875 13.82 210.515 13.38C210.195 12.9 209.595 12.66 208.715 12.66C207.875 12.66 207.275 12.9 206.915 13.38C206.595 13.82 206.435 14.54 206.435 15.54V24.3H200.975V15.6C200.975 12.6 201.595 10.44 202.835 9.12C204.115 7.76 206.075 7.08 208.715 7.08C211.395 7.08 213.335 7.76 214.535 9.12C215.775 10.44 216.395 12.62 216.395 15.66V26.58C216.395 27.98 216.135 29.1 215.615 29.94C215.095 30.74 214.295 31.38 213.215 31.86C214.255 32.18 215.055 32.76 215.615 33.6C216.215 34.44 216.515 35.64 216.515 37.2V49.14C216.515 51.66 215.875 53.7 214.595 55.26C213.355 56.78 211.395 57.54 208.715 57.54C206.075 57.54 204.095 56.78 202.775 55.26C201.495 53.74 200.855 51.72 200.855 49.2V39.48H206.435V49.14C206.435 51.06 207.195 52.02 208.715 52.02C209.595 52.02 210.215 51.78 210.575 51.3C210.935 50.78 211.115 50.06 211.115 49.14V37.32ZM230.348 57V34.62H225.668V57H220.148V7.62H225.668V29.1H230.348V7.62H235.868V57H230.348ZM251.889 57L250.989 49.38H244.929C244.729 50.66 244.549 51.94 244.389 53.22C244.269 54.46 244.129 55.72 243.969 57H238.569L244.989 7.62H251.409L257.469 57H251.889ZM250.389 44.28C249.949 40.52 249.529 36.82 249.129 33.18C248.729 29.5 248.349 25.72 247.989 21.84C247.269 29.6 246.429 37.08 245.469 44.28H250.389ZM266.778 57V36.24C266.458 36.36 265.998 36.48 265.398 36.6C264.838 36.72 264.218 36.78 263.538 36.78C261.378 36.78 259.678 36.08 258.438 34.68C257.198 33.28 256.578 31.18 256.578 28.38V7.62H262.158V28.2C262.158 29.36 262.338 30.22 262.698 30.78C263.058 31.3 263.738 31.56 264.738 31.56C265.178 31.56 265.538 31.52 265.818 31.44C266.138 31.32 266.458 31.18 266.778 31.02V7.62H272.358V57H266.778ZM276.691 57V7.62H290.011V13.2H282.211V29.04H287.431V34.62H282.211V51.48H290.311V57H276.691ZM303.766 57V34.62H299.086V57H293.566V7.62H299.086V29.1H303.766V7.62H309.286V57H303.766ZM323.747 57V34.62H319.067V57H313.547V7.62H319.067V29.1H323.747V7.62H329.267V57H323.747ZM332.327 57L335.987 33.66C334.867 33.02 334.047 32.16 333.527 31.08C333.047 29.96 332.807 28.44 332.807 26.52V16.5C332.807 13.26 333.507 10.98 334.907 9.66C336.347 8.3 338.547 7.62 341.507 7.62H349.127V57H343.607V34.8H341.267L338.387 57H332.327ZM338.387 25.44C338.387 26.8 338.567 27.86 338.927 28.62C339.327 29.38 340.167 29.76 341.447 29.76H343.607V13.2H341.507C340.387 13.2 339.587 13.46 339.107 13.98C338.627 14.5 338.387 15.34 338.387 16.5V25.44Z" fill="url(#paint0_linear_38_7)"/>
<mask id="path-2-outside-1_38_7" maskUnits="userSpaceOnUse" x="72.4256" y="21.7299" width="253.114" height="143.919" fill="black">
<rect fill="white" x="72.4256" y="21.7299" width="253.114" height="143.919"/>
<path d="M131.46 66.6115C132.448 73.7299 130.158 81.5067 124.591 89.9418C121.497 94.591 117.839 98.3746 113.617 101.293C109.389 104.174 105.042 105.925 100.575 106.545C95.7445 107.215 91.8974 106.434 89.0337 104.203C86.1699 101.973 84.4508 98.7869 83.8764 94.6465C83.2869 90.3972 83.852 85.9322 85.5717 81.2515C87.2915 76.5707 89.3067 72.5523 91.6174 69.1963C93.9918 65.4982 97.2044 62.2392 101.255 59.4191C105.342 56.5939 109.275 54.9193 113.052 54.3953C115.376 54.0728 117.353 54.4464 118.982 55.516C120.648 56.5805 121.591 57.9118 121.813 59.5099C121.838 59.6915 121.772 59.8856 121.616 60.0924C121.491 60.2579 121.285 60.5085 120.998 60.8444C120.712 61.1803 120.462 61.5112 120.248 61.837C120.034 62.1628 119.83 62.5613 119.636 63.0324C119.442 63.5035 119.291 63.8762 119.181 64.1506C119.071 64.425 118.961 64.5698 118.852 64.5849C118.671 64.6101 118.562 64.4955 118.527 64.2413C118.401 63.3333 118.145 62.4249 117.76 61.5158C116.943 59.6302 115.823 58.3604 114.4 57.7065C112.976 57.0525 111.52 56.8289 110.031 57.0355C107.234 57.4235 104.348 58.8974 101.371 61.4574C98.395 64.0174 96.0026 67.0516 94.1943 70.5601C89.9308 78.5182 88.2551 85.784 89.1671 92.3577C89.7113 96.2802 91.2079 99.3301 93.6571 101.508C96.1011 103.649 99.3207 104.442 103.316 103.888C107.238 103.344 110.895 101.689 114.288 98.9229C117.711 96.1158 120.44 92.4426 122.476 87.9031C123.805 84.9424 124.892 81.571 125.737 77.789C126.582 74.007 126.75 70.2819 126.241 66.6137C125.767 63.1998 124.952 60.3885 123.794 58.18C122.636 55.9715 120.853 54.5901 118.444 54.0359C118.138 53.9673 117.978 53.8785 117.962 53.7695C117.952 53.6969 118.02 53.6505 118.165 53.6303C118.964 53.5195 120.2 53.7552 121.873 54.3376C123.54 54.8836 124.875 55.5683 125.878 56.3916C129.005 58.9192 130.866 62.3258 131.46 66.6115ZM166.674 90.711C164.252 93.268 161.804 95.366 159.329 97.005C156.854 98.644 154.782 99.5794 153.111 99.8112C152.167 99.9422 151.312 99.7832 150.546 99.3341C149.78 98.8851 149.332 98.1884 149.201 97.2441C149.03 96.0093 149.178 94.6746 149.645 93.2401C150.112 91.8056 150.74 90.4599 151.528 89.203C152.316 87.9461 153.109 86.7256 153.907 85.5413C154.737 84.3157 155.408 83.1491 155.921 82.0415C156.428 80.8975 156.629 79.9442 156.523 79.1815C156.357 77.983 155.935 77.2086 155.257 76.8585C154.61 76.467 153.924 76.3216 153.198 76.4224C151.636 76.639 149.654 78.0985 147.253 80.8008C144.883 83.4618 142.643 86.5303 140.534 90.0065C139.025 93.8065 137.812 96.9363 136.895 99.3957C135.39 103.491 132.796 110.811 129.114 121.353C125.399 131.937 122.012 141.144 118.953 148.972C118.518 150.106 117.901 151.135 117.104 152.06C116.312 153.021 115.529 153.778 114.754 154.329C113.979 154.881 113.192 155.342 112.392 155.712C111.555 156.087 110.924 156.342 110.498 156.475C110.036 156.613 109.714 156.694 109.533 156.72C109.206 156.765 109.033 156.715 109.012 156.57C108.997 156.461 109.021 156.365 109.084 156.282C109.151 156.236 109.253 156.166 109.388 156.073C109.528 156.017 109.702 155.937 109.91 155.834C110.118 155.732 110.372 155.567 110.674 155.34C110.976 155.113 111.288 154.829 111.611 154.488C112.262 153.842 113.322 152.011 114.791 148.994C116.26 145.977 118.768 140.169 122.313 131.57C125.827 123.012 130.032 112.231 134.928 99.2244C136.93 93.9121 138.294 90.0026 139.02 87.4958C139.74 84.9526 140.023 83.1181 139.866 81.9922C139.615 80.1762 139.088 79.0463 138.286 78.6023C137.965 78.4247 137.802 78.3177 137.797 78.2814C137.787 78.2087 137.813 78.1311 137.876 78.0484C137.975 77.9606 138.107 77.8496 138.274 77.7155C138.44 77.5813 138.573 77.4704 138.672 77.3826C138.896 77.1295 139.104 76.897 139.297 76.6851C139.521 76.4319 139.662 76.2458 139.719 76.1268C139.813 76.0027 139.93 75.9125 140.07 75.856C140.242 75.7581 140.436 75.6941 140.654 75.6639C141.199 75.5883 141.68 75.8547 142.098 76.4631C142.552 77.0664 142.864 77.9855 143.036 79.2204C143.298 81.109 142.999 83.2234 142.139 85.5638C148.369 77.37 153.427 73.0035 157.313 72.4643C158.075 72.3585 158.824 72.5508 159.558 73.0412C160.293 73.5316 160.756 74.4668 160.947 75.847C161.123 77.1181 160.775 78.7398 159.901 80.7119C159.063 82.679 158.078 84.5185 156.946 86.2303C155.845 87.9008 154.843 89.6131 153.938 91.3673C153.065 93.0802 152.687 94.3543 152.803 95.1897C153.025 96.7877 153.934 97.4758 155.532 97.2541C156.985 97.0526 158.754 96.1963 160.84 94.6854C162.962 93.1695 164.736 91.6832 166.163 90.2266C168.172 88.1709 170.289 85.286 172.513 81.5718C172.665 81.3287 172.795 81.1996 172.904 81.1844C173.049 81.1643 173.132 81.2269 173.152 81.3721C173.167 81.4811 173.146 81.5951 173.088 81.7141C171.082 85.3981 168.944 88.397 166.674 90.711ZM176.003 95.3025C173.606 95.6351 171.499 95.3906 169.682 94.5692C167.897 93.7063 166.891 92.4578 166.664 90.8234C166.372 88.7169 166.877 86.8885 168.18 85.3381C169.482 83.7877 171.465 82.0689 174.127 80.1818C175.776 78.9906 176.904 77.7792 177.51 76.5475C178.153 75.3107 178.411 74.2384 178.285 73.3304C178.19 72.6404 177.873 72.092 177.335 71.6854C176.829 71.2374 176.158 71.0713 175.323 71.1872C174.052 71.3636 172.674 72.1099 171.191 73.4262C170.895 73.6895 170.728 73.8236 170.692 73.8287C170.546 73.8488 170.464 73.7863 170.444 73.641C170.423 73.4957 170.512 73.3353 170.71 73.1598C172.954 70.9236 175.22 69.6467 177.508 69.3293C178.561 69.1831 179.567 69.3583 180.524 69.8548C181.518 70.3463 182.09 71.1368 182.241 72.2263C182.352 73.0253 182.307 73.7719 182.108 74.4659C181.939 75.1186 181.55 75.7834 180.941 76.4602C180.367 77.132 179.836 77.7055 179.347 78.1805C178.852 78.6193 178.09 79.2618 177.06 80.1081C176.061 80.913 175.296 81.5373 174.766 81.9812C171.893 84.4897 170.608 86.8335 170.91 89.0127C171.107 90.4291 171.878 91.5808 173.222 92.4678C174.562 93.3184 176.285 93.5976 178.391 93.3054C181.66 92.8519 185.112 90.7812 188.746 87.0935C190.756 85.0378 192.873 82.1528 195.097 78.4386C195.212 78.2005 195.342 78.0714 195.487 78.0513C195.633 78.0311 195.715 78.0937 195.735 78.239C195.745 78.3116 195.724 78.4256 195.672 78.5809C193.666 82.2649 191.528 85.2639 189.257 87.5778C187.164 89.8302 185.113 91.5954 183.107 92.8733C181.131 94.1098 178.763 94.9195 176.003 95.3025ZM222.6 82.9519C218.033 87.6574 214.098 90.2394 210.793 90.698C207.96 91.091 206.337 89.7984 205.923 86.8203C201.907 90.1539 198.7 91.987 196.303 92.3196C194.705 92.5413 193.431 92.1628 192.481 91.1841C191.525 90.169 190.924 88.7717 190.677 86.9921C190.31 84.3408 190.866 81.4132 192.346 78.2094C193.822 74.9692 195.874 72.1488 198.502 69.7482C201.167 67.3425 203.861 65.9507 206.585 65.5728C208.147 65.3562 209.644 65.6111 211.078 66.3377C212.542 67.0229 213.627 68.1681 214.331 69.7732C215.275 69.6422 215.802 69.9762 215.913 70.7753C215.979 71.2474 215.987 71.7089 215.939 72.1599C215.927 72.6058 215.826 73.0824 215.637 73.5899C215.48 74.0559 215.333 74.465 215.197 74.817C215.092 75.1277 214.873 75.5469 214.538 76.0745C214.204 76.602 213.959 76.9692 213.803 77.176C213.683 77.3777 213.404 77.7681 212.966 78.3471C212.564 78.9211 212.317 79.2701 212.223 79.3942C212.035 79.6423 211.688 80.0791 211.183 80.7045C210.677 81.3299 210.3 81.8081 210.049 82.1389C209.77 83.3253 209.718 84.554 209.894 85.8252C210.156 87.7137 211.304 88.517 213.338 88.2348C215.626 87.9173 218.543 85.9949 222.089 82.4676C224.099 80.4118 226.216 77.5269 228.44 73.8127C228.555 73.5746 228.685 73.4455 228.83 73.4254C228.975 73.4052 229.058 73.4678 229.078 73.613C229.088 73.6857 229.067 73.7997 229.015 73.955C227.008 77.639 224.87 80.6379 222.6 82.9519ZM206.603 66.903C204.315 67.2204 202.197 68.4953 200.248 70.7275C198.331 72.9184 196.926 75.464 196.033 78.3643C195.134 81.2283 194.851 83.8587 195.184 86.2558C195.577 89.0887 196.772 90.3665 198.77 90.0894C201.022 89.777 203.392 88.3191 205.881 85.7156C206.378 82.093 207.35 78.9597 208.797 76.3157C210.548 72.9263 212.112 70.8584 213.489 70.1121C212.846 68.9428 211.892 68.0755 210.63 67.5104C209.362 66.9089 208.019 66.7065 206.603 66.903ZM210.264 80.8875C213.424 76.7104 214.91 73.9499 214.724 72.6061C214.683 72.3156 214.518 72.1904 214.227 72.2308C213.392 72.3466 212.071 75.2322 210.264 80.8875ZM237.58 89.147C236.469 89.6715 234.416 90.6225 231.424 92.0001C228.437 93.4141 226.319 94.4296 225.072 95.0469C223.825 95.6641 222.014 96.6187 219.639 97.9107C217.228 99.2077 215.333 100.359 213.955 101.365C212.577 102.37 211.047 103.619 209.366 105.111C207.654 106.644 206.152 108.222 204.859 109.845C200.288 115.588 198.346 120.929 199.031 125.868C199.273 127.611 199.978 128.957 201.146 129.906C202.314 130.854 203.515 131.243 204.75 131.071C207.51 130.688 210.242 129.699 212.945 128.102C215.611 126.511 218.039 124.527 220.226 122.15C222.419 119.81 224.483 117.21 226.418 114.35C228.358 111.527 230.042 108.591 231.47 105.542C232.94 102.525 234.186 99.6314 235.208 96.8612C236.23 94.0911 237.021 91.5197 237.58 89.147ZM254.323 78.5507C253.369 79.6825 251.572 81.1349 248.931 82.9081C246.284 84.6449 243.68 86.1537 241.119 87.4346C240.925 90.3117 240.108 93.6271 238.667 97.3808C237.231 101.171 235.281 104.995 232.818 108.853C230.391 112.707 227.691 116.321 224.716 119.695C221.705 123.074 218.38 125.923 214.741 128.242C211.071 130.602 207.474 132.026 203.951 132.515C201.59 132.842 199.644 132.557 198.113 131.659C196.545 130.766 195.62 129.303 195.338 127.269C194.572 121.748 197.167 115.632 203.121 108.92C204.819 107.019 206.592 105.255 208.439 103.629C210.291 102.039 211.977 100.714 213.495 99.6515C214.983 98.6308 216.864 97.5183 219.14 96.3141C221.421 95.1462 223.258 94.2436 224.65 93.6062C226.079 92.9638 228.224 92.0183 231.087 90.7698C233.99 89.5526 236.245 88.592 237.85 87.888C238.326 85.4528 238.482 83.6359 238.315 82.4374C238.119 81.0209 237.735 79.8527 237.163 78.9325C235.619 79.813 234.484 80.3036 233.758 80.4044C232.632 80.5606 232.031 80.3663 231.955 79.8215C231.895 79.3857 232.416 78.8693 233.517 78.2722C234.619 77.6751 235.515 77.3287 236.205 77.233C236.75 77.1574 237.216 77.1852 237.605 77.3164C239.247 76.3482 240.734 74.7908 242.065 72.6442C243.396 70.4976 243.928 68.4618 243.661 66.5369C243.505 65.411 243.054 64.5666 242.31 64.0035C241.56 63.4042 240.75 63.165 239.878 63.2859C236.355 63.7747 232.74 67.3303 229.031 73.9527C228.916 74.1908 228.786 74.3199 228.641 74.3401C228.495 74.3602 228.413 74.2976 228.393 74.1524C228.382 74.0797 228.404 73.9657 228.456 73.8104C231.193 68.9886 233.563 65.6613 235.567 63.8285C237.571 61.9958 239.68 60.9257 241.896 60.6183C243.494 60.3966 244.815 60.7131 245.859 61.5677C246.898 62.386 247.523 63.5579 247.735 65.0833C248.017 67.1171 247.248 69.3153 245.429 71.6777C243.646 74.0351 241.33 76.1518 238.481 78.0278C239.797 79.511 240.647 81.6327 241.03 84.3929C241.095 84.865 241.134 85.5445 241.146 86.4313C243.582 85.3159 246.02 83.9412 248.459 82.3072C250.934 80.6682 252.718 79.2546 253.812 78.0664C256.093 75.5658 258.21 72.6808 260.162 69.4115C260.278 69.1734 260.408 69.0443 260.553 69.0242C260.698 69.004 260.781 69.0666 260.801 69.2119C260.811 69.2845 260.79 69.3985 260.737 69.5538C259.207 72.3945 257.069 75.3934 254.323 78.5507ZM290.233 73.6241C290.576 76.0937 291.837 77.1774 294.016 76.8751C296.958 76.4669 300.082 74.5713 303.388 71.1882C305.398 69.1325 307.515 66.2475 309.739 62.5333C309.854 62.2952 309.985 62.1661 310.13 62.146C310.275 62.1258 310.358 62.1884 310.378 62.3336C310.388 62.4063 310.367 62.5203 310.314 62.6756C308.308 66.3596 306.17 69.3585 303.9 71.6725C299.625 76.0784 295.417 78.5686 291.277 79.143C289.788 79.3496 288.549 79.0957 287.562 78.3813C286.574 77.6669 285.99 76.656 285.808 75.3485C285.541 73.4236 286.195 70.2605 287.768 65.8592C286.917 67.1988 285.305 69.588 282.932 73.0268C279.354 78.1874 276.185 80.9592 273.425 81.3422C271.209 81.6496 269.94 80.641 269.618 78.3166C269.179 75.1569 269.878 70.988 271.714 65.8099C271.599 66.048 271.178 66.8837 270.451 68.3172C269.72 69.7143 268.996 71.0363 268.281 72.2831C267.597 73.4886 266.882 74.6057 266.136 75.6346C264.092 78.5095 262.196 80.5864 260.448 81.8654C258.732 83.103 257.347 83.7948 256.294 83.9409C253.897 84.2735 252.573 83.5318 252.321 81.7159C252.24 81.1348 252.263 80.6319 252.389 80.2072C252.51 79.7462 252.649 79.4123 252.805 79.2055C252.962 78.9987 253.253 78.6991 253.68 78.3067C254.107 77.9143 254.383 77.6354 254.508 77.47C254.893 77.0464 255.292 76.5839 255.704 76.0825C256.115 75.5812 256.402 75.2453 256.563 75.0748C256.72 74.8681 256.852 74.7571 256.961 74.742C257.07 74.7269 257.132 74.7738 257.147 74.8827C257.168 75.028 257.053 75.2661 256.802 75.5969C255.656 76.9405 255.171 78.2479 255.348 79.5191C255.448 80.2455 255.747 80.7963 256.243 81.1717C256.739 81.547 257.333 81.6869 258.023 81.5911C258.967 81.4601 260.194 80.6976 261.703 79.3036C263.249 77.9046 264.812 76.096 266.392 73.8778C267.169 72.8075 267.884 71.6904 268.537 70.5263C269.221 69.3208 269.707 68.4205 269.994 67.8253C270.313 67.1888 270.755 66.239 271.321 64.9761C271.917 63.6717 272.26 62.9394 272.348 62.779C272.578 62.3028 272.885 61.4459 273.269 60.2081C273.684 58.9289 274.099 58.0569 274.516 57.5919C274.896 57.1319 275.778 56.5469 277.16 55.8369C277.368 55.734 277.571 55.5948 277.768 55.4193C278.002 55.2388 278.156 55.1435 278.228 55.1334C278.374 55.1132 278.461 55.2121 278.492 55.43C278.512 55.5753 278.414 55.9405 278.2 56.5256C277.979 57.0743 277.663 57.8587 277.249 58.8785C276.83 59.8621 276.479 60.7992 276.195 61.69C275.308 64.3673 274.67 67.1027 274.28 69.8961C273.885 72.6532 273.811 74.9215 274.058 76.7011C274.239 78.0086 274.875 78.5868 275.964 78.4356C277.708 78.1937 279.847 76.2682 282.381 72.659C285.234 68.6725 287.502 64.8781 289.187 61.2758C289.417 60.7996 289.707 60.093 290.058 59.1558C290.446 58.2136 290.797 57.4061 291.111 56.7333C291.419 56.0241 291.715 55.4834 291.996 55.1112C292.309 54.6976 293.016 54.1923 294.118 53.5952C295.043 53.0597 295.796 52.7516 296.377 52.671C296.595 52.6407 296.727 52.7891 296.772 53.1159C296.792 53.2612 296.602 53.6208 296.2 54.1948C295.83 54.7274 295.36 55.4774 294.791 56.4448C294.222 57.4122 293.78 58.3619 293.465 59.294C292.641 61.6294 292.025 63.4548 291.615 64.7702C291.205 66.0857 290.825 67.6191 290.476 69.3703C290.163 71.1166 290.082 72.5345 290.233 73.6241Z"/>
</mask>
<path d="M131.46 66.6115C132.448 73.7299 130.158 81.5067 124.591 89.9418C121.497 94.591 117.839 98.3746 113.617 101.293C109.389 104.174 105.042 105.925 100.575 106.545C95.7445 107.215 91.8974 106.434 89.0337 104.203C86.1699 101.973 84.4508 98.7869 83.8764 94.6465C83.2869 90.3972 83.852 85.9322 85.5717 81.2515C87.2915 76.5707 89.3067 72.5523 91.6174 69.1963C93.9918 65.4982 97.2044 62.2392 101.255 59.4191C105.342 56.5939 109.275 54.9193 113.052 54.3953C115.376 54.0728 117.353 54.4464 118.982 55.516C120.648 56.5805 121.591 57.9118 121.813 59.5099C121.838 59.6915 121.772 59.8856 121.616 60.0924C121.491 60.2579 121.285 60.5085 120.998 60.8444C120.712 61.1803 120.462 61.5112 120.248 61.837C120.034 62.1628 119.83 62.5613 119.636 63.0324C119.442 63.5035 119.291 63.8762 119.181 64.1506C119.071 64.425 118.961 64.5698 118.852 64.5849C118.671 64.6101 118.562 64.4955 118.527 64.2413C118.401 63.3333 118.145 62.4249 117.76 61.5158C116.943 59.6302 115.823 58.3604 114.4 57.7065C112.976 57.0525 111.52 56.8289 110.031 57.0355C107.234 57.4235 104.348 58.8974 101.371 61.4574C98.395 64.0174 96.0026 67.0516 94.1943 70.5601C89.9308 78.5182 88.2551 85.784 89.1671 92.3577C89.7113 96.2802 91.2079 99.3301 93.6571 101.508C96.1011 103.649 99.3207 104.442 103.316 103.888C107.238 103.344 110.895 101.689 114.288 98.9229C117.711 96.1158 120.44 92.4426 122.476 87.9031C123.805 84.9424 124.892 81.571 125.737 77.789C126.582 74.007 126.75 70.2819 126.241 66.6137C125.767 63.1998 124.952 60.3885 123.794 58.18C122.636 55.9715 120.853 54.5901 118.444 54.0359C118.138 53.9673 117.978 53.8785 117.962 53.7695C117.952 53.6969 118.02 53.6505 118.165 53.6303C118.964 53.5195 120.2 53.7552 121.873 54.3376C123.54 54.8836 124.875 55.5683 125.878 56.3916C129.005 58.9192 130.866 62.3258 131.46 66.6115ZM166.674 90.711C164.252 93.268 161.804 95.366 159.329 97.005C156.854 98.644 154.782 99.5794 153.111 99.8112C152.167 99.9422 151.312 99.7832 150.546 99.3341C149.78 98.8851 149.332 98.1884 149.201 97.2441C149.03 96.0093 149.178 94.6746 149.645 93.2401C150.112 91.8056 150.74 90.4599 151.528 89.203C152.316 87.9461 153.109 86.7256 153.907 85.5413C154.737 84.3157 155.408 83.1491 155.921 82.0415C156.428 80.8975 156.629 79.9442 156.523 79.1815C156.357 77.983 155.935 77.2086 155.257 76.8585C154.61 76.467 153.924 76.3216 153.198 76.4224C151.636 76.639 149.654 78.0985 147.253 80.8008C144.883 83.4618 142.643 86.5303 140.534 90.0065C139.025 93.8065 137.812 96.9363 136.895 99.3957C135.39 103.491 132.796 110.811 129.114 121.353C125.399 131.937 122.012 141.144 118.953 148.972C118.518 150.106 117.901 151.135 117.104 152.06C116.312 153.021 115.529 153.778 114.754 154.329C113.979 154.881 113.192 155.342 112.392 155.712C111.555 156.087 110.924 156.342 110.498 156.475C110.036 156.613 109.714 156.694 109.533 156.72C109.206 156.765 109.033 156.715 109.012 156.57C108.997 156.461 109.021 156.365 109.084 156.282C109.151 156.236 109.253 156.166 109.388 156.073C109.528 156.017 109.702 155.937 109.91 155.834C110.118 155.732 110.372 155.567 110.674 155.34C110.976 155.113 111.288 154.829 111.611 154.488C112.262 153.842 113.322 152.011 114.791 148.994C116.26 145.977 118.768 140.169 122.313 131.57C125.827 123.012 130.032 112.231 134.928 99.2244C136.93 93.9121 138.294 90.0026 139.02 87.4958C139.74 84.9526 140.023 83.1181 139.866 81.9922C139.615 80.1762 139.088 79.0463 138.286 78.6023C137.965 78.4247 137.802 78.3177 137.797 78.2814C137.787 78.2087 137.813 78.1311 137.876 78.0484C137.975 77.9606 138.107 77.8496 138.274 77.7155C138.44 77.5813 138.573 77.4704 138.672 77.3826C138.896 77.1295 139.104 76.897 139.297 76.6851C139.521 76.4319 139.662 76.2458 139.719 76.1268C139.813 76.0027 139.93 75.9125 140.07 75.856C140.242 75.7581 140.436 75.6941 140.654 75.6639C141.199 75.5883 141.68 75.8547 142.098 76.4631C142.552 77.0664 142.864 77.9855 143.036 79.2204C143.298 81.109 142.999 83.2234 142.139 85.5638C148.369 77.37 153.427 73.0035 157.313 72.4643C158.075 72.3585 158.824 72.5508 159.558 73.0412C160.293 73.5316 160.756 74.4668 160.947 75.847C161.123 77.1181 160.775 78.7398 159.901 80.7119C159.063 82.679 158.078 84.5185 156.946 86.2303C155.845 87.9008 154.843 89.6131 153.938 91.3673C153.065 93.0802 152.687 94.3543 152.803 95.1897C153.025 96.7877 153.934 97.4758 155.532 97.2541C156.985 97.0526 158.754 96.1963 160.84 94.6854C162.962 93.1695 164.736 91.6832 166.163 90.2266C168.172 88.1709 170.289 85.286 172.513 81.5718C172.665 81.3287 172.795 81.1996 172.904 81.1844C173.049 81.1643 173.132 81.2269 173.152 81.3721C173.167 81.4811 173.146 81.5951 173.088 81.7141C171.082 85.3981 168.944 88.397 166.674 90.711ZM176.003 95.3025C173.606 95.6351 171.499 95.3906 169.682 94.5692C167.897 93.7063 166.891 92.4578 166.664 90.8234C166.372 88.7169 166.877 86.8885 168.18 85.3381C169.482 83.7877 171.465 82.0689 174.127 80.1818C175.776 78.9906 176.904 77.7792 177.51 76.5475C178.153 75.3107 178.411 74.2384 178.285 73.3304C178.19 72.6404 177.873 72.092 177.335 71.6854C176.829 71.2374 176.158 71.0713 175.323 71.1872C174.052 71.3636 172.674 72.1099 171.191 73.4262C170.895 73.6895 170.728 73.8236 170.692 73.8287C170.546 73.8488 170.464 73.7863 170.444 73.641C170.423 73.4957 170.512 73.3353 170.71 73.1598C172.954 70.9236 175.22 69.6467 177.508 69.3293C178.561 69.1831 179.567 69.3583 180.524 69.8548C181.518 70.3463 182.09 71.1368 182.241 72.2263C182.352 73.0253 182.307 73.7719 182.108 74.4659C181.939 75.1186 181.55 75.7834 180.941 76.4602C180.367 77.132 179.836 77.7055 179.347 78.1805C178.852 78.6193 178.09 79.2618 177.06 80.1081C176.061 80.913 175.296 81.5373 174.766 81.9812C171.893 84.4897 170.608 86.8335 170.91 89.0127C171.107 90.4291 171.878 91.5808 173.222 92.4678C174.562 93.3184 176.285 93.5976 178.391 93.3054C181.66 92.8519 185.112 90.7812 188.746 87.0935C190.756 85.0378 192.873 82.1528 195.097 78.4386C195.212 78.2005 195.342 78.0714 195.487 78.0513C195.633 78.0311 195.715 78.0937 195.735 78.239C195.745 78.3116 195.724 78.4256 195.672 78.5809C193.666 82.2649 191.528 85.2639 189.257 87.5778C187.164 89.8302 185.113 91.5954 183.107 92.8733C181.131 94.1098 178.763 94.9195 176.003 95.3025ZM222.6 82.9519C218.033 87.6574 214.098 90.2394 210.793 90.698C207.96 91.091 206.337 89.7984 205.923 86.8203C201.907 90.1539 198.7 91.987 196.303 92.3196C194.705 92.5413 193.431 92.1628 192.481 91.1841C191.525 90.169 190.924 88.7717 190.677 86.9921C190.31 84.3408 190.866 81.4132 192.346 78.2094C193.822 74.9692 195.874 72.1488 198.502 69.7482C201.167 67.3425 203.861 65.9507 206.585 65.5728C208.147 65.3562 209.644 65.6111 211.078 66.3377C212.542 67.0229 213.627 68.1681 214.331 69.7732C215.275 69.6422 215.802 69.9762 215.913 70.7753C215.979 71.2474 215.987 71.7089 215.939 72.1599C215.927 72.6058 215.826 73.0824 215.637 73.5899C215.48 74.0559 215.333 74.465 215.197 74.817C215.092 75.1277 214.873 75.5469 214.538 76.0745C214.204 76.602 213.959 76.9692 213.803 77.176C213.683 77.3777 213.404 77.7681 212.966 78.3471C212.564 78.9211 212.317 79.2701 212.223 79.3942C212.035 79.6423 211.688 80.0791 211.183 80.7045C210.677 81.3299 210.3 81.8081 210.049 82.1389C209.77 83.3253 209.718 84.554 209.894 85.8252C210.156 87.7137 211.304 88.517 213.338 88.2348C215.626 87.9173 218.543 85.9949 222.089 82.4676C224.099 80.4118 226.216 77.5269 228.44 73.8127C228.555 73.5746 228.685 73.4455 228.83 73.4254C228.975 73.4052 229.058 73.4678 229.078 73.613C229.088 73.6857 229.067 73.7997 229.015 73.955C227.008 77.639 224.87 80.6379 222.6 82.9519ZM206.603 66.903C204.315 67.2204 202.197 68.4953 200.248 70.7275C198.331 72.9184 196.926 75.464 196.033 78.3643C195.134 81.2283 194.851 83.8587 195.184 86.2558C195.577 89.0887 196.772 90.3665 198.77 90.0894C201.022 89.777 203.392 88.3191 205.881 85.7156C206.378 82.093 207.35 78.9597 208.797 76.3157C210.548 72.9263 212.112 70.8584 213.489 70.1121C212.846 68.9428 211.892 68.0755 210.63 67.5104C209.362 66.9089 208.019 66.7065 206.603 66.903ZM210.264 80.8875C213.424 76.7104 214.91 73.9499 214.724 72.6061C214.683 72.3156 214.518 72.1904 214.227 72.2308C213.392 72.3466 212.071 75.2322 210.264 80.8875ZM237.58 89.147C236.469 89.6715 234.416 90.6225 231.424 92.0001C228.437 93.4141 226.319 94.4296 225.072 95.0469C223.825 95.6641 222.014 96.6187 219.639 97.9107C217.228 99.2077 215.333 100.359 213.955 101.365C212.577 102.37 211.047 103.619 209.366 105.111C207.654 106.644 206.152 108.222 204.859 109.845C200.288 115.588 198.346 120.929 199.031 125.868C199.273 127.611 199.978 128.957 201.146 129.906C202.314 130.854 203.515 131.243 204.75 131.071C207.51 130.688 210.242 129.699 212.945 128.102C215.611 126.511 218.039 124.527 220.226 122.15C222.419 119.81 224.483 117.21 226.418 114.35C228.358 111.527 230.042 108.591 231.47 105.542C232.94 102.525 234.186 99.6314 235.208 96.8612C236.23 94.0911 237.021 91.5197 237.58 89.147ZM254.323 78.5507C253.369 79.6825 251.572 81.1349 248.931 82.9081C246.284 84.6449 243.68 86.1537 241.119 87.4346C240.925 90.3117 240.108 93.6271 238.667 97.3808C237.231 101.171 235.281 104.995 232.818 108.853C230.391 112.707 227.691 116.321 224.716 119.695C221.705 123.074 218.38 125.923 214.741 128.242C211.071 130.602 207.474 132.026 203.951 132.515C201.59 132.842 199.644 132.557 198.113 131.659C196.545 130.766 195.62 129.303 195.338 127.269C194.572 121.748 197.167 115.632 203.121 108.92C204.819 107.019 206.592 105.255 208.439 103.629C210.291 102.039 211.977 100.714 213.495 99.6515C214.983 98.6308 216.864 97.5183 219.14 96.3141C221.421 95.1462 223.258 94.2436 224.65 93.6062C226.079 92.9638 228.224 92.0183 231.087 90.7698C233.99 89.5526 236.245 88.592 237.85 87.888C238.326 85.4528 238.482 83.6359 238.315 82.4374C238.119 81.0209 237.735 79.8527 237.163 78.9325C235.619 79.813 234.484 80.3036 233.758 80.4044C232.632 80.5606 232.031 80.3663 231.955 79.8215C231.895 79.3857 232.416 78.8693 233.517 78.2722C234.619 77.6751 235.515 77.3287 236.205 77.233C236.75 77.1574 237.216 77.1852 237.605 77.3164C239.247 76.3482 240.734 74.7908 242.065 72.6442C243.396 70.4976 243.928 68.4618 243.661 66.5369C243.505 65.411 243.054 64.5666 242.31 64.0035C241.56 63.4042 240.75 63.165 239.878 63.2859C236.355 63.7747 232.74 67.3303 229.031 73.9527C228.916 74.1908 228.786 74.3199 228.641 74.3401C228.495 74.3602 228.413 74.2976 228.393 74.1524C228.382 74.0797 228.404 73.9657 228.456 73.8104C231.193 68.9886 233.563 65.6613 235.567 63.8285C237.571 61.9958 239.68 60.9257 241.896 60.6183C243.494 60.3966 244.815 60.7131 245.859 61.5677C246.898 62.386 247.523 63.5579 247.735 65.0833C248.017 67.1171 247.248 69.3153 245.429 71.6777C243.646 74.0351 241.33 76.1518 238.481 78.0278C239.797 79.511 240.647 81.6327 241.03 84.3929C241.095 84.865 241.134 85.5445 241.146 86.4313C243.582 85.3159 246.02 83.9412 248.459 82.3072C250.934 80.6682 252.718 79.2546 253.812 78.0664C256.093 75.5658 258.21 72.6808 260.162 69.4115C260.278 69.1734 260.408 69.0443 260.553 69.0242C260.698 69.004 260.781 69.0666 260.801 69.2119C260.811 69.2845 260.79 69.3985 260.737 69.5538C259.207 72.3945 257.069 75.3934 254.323 78.5507ZM290.233 73.6241C290.576 76.0937 291.837 77.1774 294.016 76.8751C296.958 76.4669 300.082 74.5713 303.388 71.1882C305.398 69.1325 307.515 66.2475 309.739 62.5333C309.854 62.2952 309.985 62.1661 310.13 62.146C310.275 62.1258 310.358 62.1884 310.378 62.3336C310.388 62.4063 310.367 62.5203 310.314 62.6756C308.308 66.3596 306.17 69.3585 303.9 71.6725C299.625 76.0784 295.417 78.5686 291.277 79.143C289.788 79.3496 288.549 79.0957 287.562 78.3813C286.574 77.6669 285.99 76.656 285.808 75.3485C285.541 73.4236 286.195 70.2605 287.768 65.8592C286.917 67.1988 285.305 69.588 282.932 73.0268C279.354 78.1874 276.185 80.9592 273.425 81.3422C271.209 81.6496 269.94 80.641 269.618 78.3166C269.179 75.1569 269.878 70.988 271.714 65.8099C271.599 66.048 271.178 66.8837 270.451 68.3172C269.72 69.7143 268.996 71.0363 268.281 72.2831C267.597 73.4886 266.882 74.6057 266.136 75.6346C264.092 78.5095 262.196 80.5864 260.448 81.8654C258.732 83.103 257.347 83.7948 256.294 83.9409C253.897 84.2735 252.573 83.5318 252.321 81.7159C252.24 81.1348 252.263 80.6319 252.389 80.2072C252.51 79.7462 252.649 79.4123 252.805 79.2055C252.962 78.9987 253.253 78.6991 253.68 78.3067C254.107 77.9143 254.383 77.6354 254.508 77.47C254.893 77.0464 255.292 76.5839 255.704 76.0825C256.115 75.5812 256.402 75.2453 256.563 75.0748C256.72 74.8681 256.852 74.7571 256.961 74.742C257.07 74.7269 257.132 74.7738 257.147 74.8827C257.168 75.028 257.053 75.2661 256.802 75.5969C255.656 76.9405 255.171 78.2479 255.348 79.5191C255.448 80.2455 255.747 80.7963 256.243 81.1717C256.739 81.547 257.333 81.6869 258.023 81.5911C258.967 81.4601 260.194 80.6976 261.703 79.3036C263.249 77.9046 264.812 76.096 266.392 73.8778C267.169 72.8075 267.884 71.6904 268.537 70.5263C269.221 69.3208 269.707 68.4205 269.994 67.8253C270.313 67.1888 270.755 66.239 271.321 64.9761C271.917 63.6717 272.26 62.9394 272.348 62.779C272.578 62.3028 272.885 61.4459 273.269 60.2081C273.684 58.9289 274.099 58.0569 274.516 57.5919C274.896 57.1319 275.778 56.5469 277.16 55.8369C277.368 55.734 277.571 55.5948 277.768 55.4193C278.002 55.2388 278.156 55.1435 278.228 55.1334C278.374 55.1132 278.461 55.2121 278.492 55.43C278.512 55.5753 278.414 55.9405 278.2 56.5256C277.979 57.0743 277.663 57.8587 277.249 58.8785C276.83 59.8621 276.479 60.7992 276.195 61.69C275.308 64.3673 274.67 67.1027 274.28 69.8961C273.885 72.6532 273.811 74.9215 274.058 76.7011C274.239 78.0086 274.875 78.5868 275.964 78.4356C277.708 78.1937 279.847 76.2682 282.381 72.659C285.234 68.6725 287.502 64.8781 289.187 61.2758C289.417 60.7996 289.707 60.093 290.058 59.1558C290.446 58.2136 290.797 57.4061 291.111 56.7333C291.419 56.0241 291.715 55.4834 291.996 55.1112C292.309 54.6976 293.016 54.1923 294.118 53.5952C295.043 53.0597 295.796 52.7516 296.377 52.671C296.595 52.6407 296.727 52.7891 296.772 53.1159C296.792 53.2612 296.602 53.6208 296.2 54.1948C295.83 54.7274 295.36 55.4774 294.791 56.4448C294.222 57.4122 293.78 58.3619 293.465 59.294C292.641 61.6294 292.025 63.4548 291.615 64.7702C291.205 66.0857 290.825 67.6191 290.476 69.3703C290.163 71.1166 290.082 72.5345 290.233 73.6241Z" fill="#FFE9C4"/>
<path d="M124.591 89.9418L128.749 92.7185L128.756 92.7087L128.762 92.6988L124.591 89.9418ZM91.6174 69.1963L95.7373 72.0294L95.7859 71.9587L95.8322 71.8863L91.6174 69.1963ZM120.248 61.837L124.397 64.6273L124.432 64.5746L124.466 64.521L120.248 61.837ZM117.76 61.5158L122.368 59.5758L122.358 59.5505L122.347 59.5253L117.76 61.5158ZM94.1943 70.5601L98.6037 72.9174L98.6148 72.8967L98.6256 72.8759L94.1943 70.5601ZM122.476 87.9031L117.929 85.8239L117.926 85.8305L117.923 85.8372L122.476 87.9031ZM118.444 54.0359L119.562 49.1627L119.461 49.1393L119.358 49.1202L118.444 54.0359ZM125.878 56.3916L129.013 52.497L129.007 52.4916L125.878 56.3916ZM126.508 67.2986C127.464 74.1927 123.971 81.8118 120.42 87.1848L128.762 92.6988C132.646 86.8233 137.89 76.5722 136.413 65.9244L126.508 67.2986ZM120.433 87.165C114.794 95.6088 107.062 100.597 99.8878 101.592L101.262 111.497C111.848 110.029 121.883 103.001 128.749 92.7185L120.433 87.165ZM99.8878 101.592C95.8912 102.147 93.4327 101.285 91.943 100.129C90.4182 98.9459 89.2419 96.9359 88.829 93.9594L78.9238 95.3336C79.6068 100.256 81.7678 104.891 85.8122 108.029C89.8919 111.195 95.2346 112.333 101.262 111.497L99.8878 101.592ZM88.829 93.9594C88.3215 90.302 89.1287 86.0674 90.6574 81.9194C92.1673 77.8226 94.2275 74.225 95.7373 72.0294L87.4976 66.3631C85.5882 69.1396 83.1128 73.473 81.2744 78.4613C79.4548 83.3984 78.101 89.4029 78.9238 95.3336L88.829 93.9594ZM95.8322 71.8863C97.7925 68.8148 100.77 65.837 104.135 63.5147C107.529 61.1715 110.973 59.7316 113.739 59.3479L112.365 49.4427C107.613 50.102 102.711 52.3464 98.4539 55.2848C94.1666 58.2441 90.186 62.1454 87.4027 66.5063L95.8322 71.8863ZM113.739 59.3479C115.049 59.1661 115.918 59.4774 116.385 59.7786C116.911 60.118 116.886 60.3792 116.86 60.197L126.765 58.8228C125.877 52.4201 119.225 48.4909 112.365 49.4427L113.739 59.3479ZM116.86 60.197C116.779 59.6109 116.822 59.0599 116.936 58.5805C117.044 58.1214 117.205 57.7763 117.321 57.5638C117.435 57.355 117.535 57.2198 117.566 57.1782C117.598 57.1353 117.608 57.1272 117.56 57.1824C117.505 57.2467 117.46 57.2972 117.345 57.4278C117.247 57.5396 117.121 57.6853 116.983 57.8511C116.703 58.1881 116.367 58.6214 116.029 59.153L124.466 64.521C124.604 64.3039 124.669 64.2529 125.144 63.7004C125.308 63.5096 125.745 63.0042 126.103 62.3462C126.509 61.601 126.979 60.365 126.765 58.8228L116.86 60.197ZM116.099 59.0467C115.705 59.6321 115.414 60.2028 115.203 60.6611C114.994 61.1162 114.827 61.5432 114.724 61.8041C114.666 61.9526 114.635 62.0328 114.608 62.0977C114.579 62.1672 114.591 62.1331 114.632 62.051C114.653 62.0093 114.814 61.6826 115.135 61.2978C115.306 61.093 115.609 60.7665 116.063 60.4514C116.53 60.1274 117.238 59.7609 118.165 59.6323L119.539 69.5374C121.427 69.2755 122.492 68.0895 122.813 67.7052C123.215 67.223 123.458 66.7595 123.564 66.549C123.778 66.1225 123.967 65.6274 124.034 65.4564C124.142 65.1815 124.213 65.0027 124.288 64.8407C124.361 64.6817 124.399 64.6237 124.397 64.6273L116.099 59.0467ZM118.165 59.6323C118.728 59.5542 119.524 59.553 120.403 59.8686C121.314 60.1958 122.02 60.7582 122.512 61.3689C123.349 62.4069 123.466 63.4554 123.479 63.5542L113.574 64.9284C113.618 65.2452 113.789 66.4805 114.726 67.6434C116.031 69.2627 117.946 69.7585 119.539 69.5374L118.165 59.6323ZM123.479 63.5542C123.262 61.9899 122.825 60.6605 122.368 59.5758L113.152 63.4558C113.358 63.9451 113.504 64.4225 113.574 64.9284L123.479 63.5542ZM122.347 59.5253C120.99 56.3995 118.836 54.2492 116.264 53.0573C113.798 51.9141 111.301 51.8114 109.344 52.0829L110.718 61.988C111.267 61.9119 111.737 61.9806 112.059 62.1301C112.277 62.231 112.734 62.4946 113.173 63.5064L122.347 59.5253ZM109.344 52.0829C105.208 52.6567 101.278 54.9519 98.0667 57.7287C94.7897 60.5625 91.8532 64.2446 89.7629 68.2442L98.6256 72.8759C100.133 69.9908 102.282 67.3036 104.608 65.2928C106.999 63.225 109.188 62.2003 110.718 61.988L109.344 52.0829ZM89.7848 68.2028C86.4608 74.4207 82.8215 83.0044 84.2145 93.0449L94.1196 91.6706C93.1696 84.8228 95.5795 78.5745 98.6037 72.9174L89.7848 68.2028ZM84.2145 93.0449C84.8513 97.635 86.716 102.04 90.2248 105.127C93.8422 108.309 98.6373 109.585 104.003 108.84L102.629 98.9352C99.7136 99.3397 97.9558 98.6092 96.8298 97.6187C95.5952 96.5327 94.5258 94.5984 94.1196 91.6706L84.2145 93.0449ZM104.003 108.84C113.773 107.485 122.306 100.379 127.029 89.969L117.923 85.8372C114.311 93.7969 108.33 98.1442 102.629 98.9352L104.003 108.84ZM127.023 89.9823C129.272 85.063 132.526 75.5284 131.194 65.9266L121.288 67.3008C122.239 74.1514 119.854 81.6128 117.929 85.8239L127.023 89.9823ZM131.194 65.9266C130.771 62.8786 130.048 59.3443 128.45 56.2936C126.768 53.0826 123.972 50.1751 119.562 49.1627L117.325 58.9092C118.192 59.1082 118.894 59.6022 119.591 60.9336C120.373 62.4252 120.91 64.5741 121.288 67.3008L131.194 65.9266ZM119.358 49.1202C119.414 49.1308 119.97 49.2258 120.638 49.6232C121.431 50.0954 122.653 51.1927 122.915 53.0824L113.01 54.4566C113.287 56.4553 114.578 57.654 115.523 58.2163C116.342 58.7037 117.131 58.8775 117.529 58.9516L119.358 49.1202ZM122.915 53.0824C123.179 54.9821 122.319 56.6285 121.137 57.5813C120.17 58.3608 119.203 58.5343 118.852 58.5829L117.478 48.6778C116.964 48.7491 115.892 48.9649 114.862 49.7947C113.618 50.7978 112.739 52.5025 113.01 54.4566L122.915 53.0824ZM118.852 58.5829C118.442 58.6399 118.36 58.5673 118.809 58.6501C119.156 58.7139 119.633 58.8365 120.178 59.0232C121.351 59.4245 122.306 59.9359 122.749 60.2917L129.007 52.4916C127.326 51.1431 125.187 50.1681 123.416 49.5619C122.489 49.2448 121.532 48.9834 120.621 48.8156C119.813 48.6668 118.651 48.515 117.478 48.6778L118.852 58.5829ZM122.742 60.2863C124.752 61.9044 126.018 63.768 126.508 67.2986L136.413 65.9244C135.572 59.8668 133.004 55.7101 129.013 52.497L122.742 60.2863ZM166.674 90.711L163.12 87.1942L163.077 87.2374L163.035 87.2816L166.674 90.711ZM140.534 90.0065L136.259 87.4135L136.042 87.7719L135.887 88.1614L140.534 90.0065ZM136.895 99.3957L132.21 97.6482L132.206 97.6597L132.202 97.6713L136.895 99.3957ZM118.953 148.972L114.294 147.156L114.292 147.16L118.953 148.972ZM111.611 154.488L108.057 150.971L108.042 150.986L108.028 151L111.611 154.488ZM134.928 99.2244L130.249 97.4597L130.249 97.4615L134.928 99.2244ZM138.286 78.6023L135.728 82.8988L135.827 82.9576L135.928 83.0117L138.286 78.6023ZM138.672 77.3826L135.15 73.8329L135.15 73.8329L138.672 77.3826ZM142.139 85.5638L137.446 83.8395L146.116 88.5937L142.139 85.5638ZM166.163 90.2266L162.604 86.7143L162.597 86.7211L162.591 86.7279L166.163 90.2266ZM172.513 81.5718L168.269 78.9291L168.242 78.9715L168.217 79.0145L172.513 81.5718ZM173.088 81.7141L168.714 79.2922L168.703 79.313L168.691 79.3338L173.088 81.7141ZM163.035 87.2816C160.802 89.6516 158.519 91.5556 156.509 92.8844C154.381 94.2917 152.966 94.7833 152.424 94.8586L153.798 104.764C156.524 104.386 159.423 102.946 162.024 101.226C164.745 99.4278 167.609 97.0085 170.313 94.1404L163.035 87.2816ZM152.424 94.8586C152.469 94.8524 152.738 94.8202 153.141 95.0601C153.361 95.1907 153.607 95.3994 153.812 95.7006C154.02 96.0086 154.12 96.3183 154.154 96.557L144.248 97.9312C144.603 100.49 146.068 102.488 148.027 103.653C149.867 104.749 151.955 105.019 153.798 104.764L152.424 94.8586ZM154.154 96.557C154.09 96.0982 154.158 95.3423 154.662 94.1203C155.168 92.8916 155.955 91.5604 156.948 90.0103C157.84 88.6179 159.056 86.8201 159.912 85.2108C160.698 83.7337 161.858 81.2501 161.476 78.4944L151.571 79.8686C151.483 79.2376 151.76 79.2433 151.084 80.5128C150.479 81.6502 149.655 82.8563 148.527 84.6176C147.5 86.2212 146.288 88.1935 145.416 90.3107C144.541 92.4345 143.851 95.0668 144.248 97.9312L154.154 96.557ZM161.476 78.4944C161.107 75.8355 159.763 73.6033 157.508 72.3551C155.544 71.2676 153.583 71.321 152.51 71.4698L153.885 81.3749C153.782 81.3891 153.651 81.3977 153.481 81.3772C153.306 81.3562 153.008 81.2938 152.665 81.1038C152.293 80.8981 151.977 80.6013 151.765 80.2685C151.566 79.9554 151.556 79.7657 151.571 79.8686L161.476 78.4944ZM152.51 71.4698C150.363 71.7677 148.54 72.9316 147.266 73.9148C145.879 74.9858 144.522 76.3364 143.265 77.7531C140.743 80.5964 138.248 84.1339 136.259 87.4135L144.809 92.5994C146.571 89.695 148.719 86.6747 150.746 84.3891C151.764 83.2414 152.659 82.3848 153.376 81.8311C154.208 81.1896 154.343 81.3113 153.885 81.3749L152.51 71.4698ZM140.534 90.0065C135.887 88.1614 135.887 88.1614 135.887 88.1615C135.887 88.1616 135.887 88.1617 135.887 88.1618C135.887 88.162 135.887 88.1623 135.887 88.1627C135.886 88.1634 135.886 88.1646 135.885 88.166C135.884 88.1689 135.882 88.1732 135.88 88.1788C135.876 88.1901 135.869 88.2067 135.86 88.2283C135.843 88.2717 135.818 88.3355 135.785 88.4178C135.72 88.5824 135.626 88.8212 135.508 89.1191C135.273 89.7147 134.945 90.5474 134.574 91.4962C133.835 93.387 132.913 95.7648 132.21 97.6482L141.58 101.143C142.253 99.3375 143.151 97.0206 143.887 95.1391C144.254 94.2018 144.578 93.3789 144.81 92.7904C144.926 92.4963 145.019 92.2609 145.083 92.0994C145.115 92.0187 145.14 91.9564 145.156 91.9144C145.165 91.8935 145.171 91.8776 145.175 91.867C145.177 91.8617 145.179 91.8578 145.18 91.8552C145.18 91.8539 145.181 91.853 145.181 91.8523C145.181 91.852 145.181 91.8518 145.181 91.8517C145.181 91.8516 145.181 91.8516 145.181 91.8516C145.181 91.8515 145.181 91.8516 140.534 90.0065ZM132.202 97.6713C124.99 117.3 122.283 126.659 114.294 147.156L123.611 150.788C131.593 130.311 134.612 120.108 141.588 101.12L132.202 97.6713ZM114.292 147.16C113.643 148.829 112.381 149.987 111.001 150.791C110.321 151.186 109.677 151.456 109.197 151.625C108.62 151.828 108.481 151.818 108.846 151.767L110.22 161.672C111.118 161.548 113.497 160.908 116.031 159.433C118.658 157.904 121.888 155.219 123.613 150.784L114.292 147.16ZM108.846 151.767C108.742 151.782 108.829 151.768 108.942 151.759C109.037 151.751 109.446 151.718 109.982 151.805C110.542 151.896 111.56 152.17 112.494 153.048C113.478 153.974 113.854 155.082 113.965 155.883L104.06 157.257C104.186 158.166 104.6 159.352 105.642 160.332C106.634 161.265 107.729 161.57 108.382 161.676C109.01 161.778 109.526 161.744 109.74 161.727C109.972 161.708 110.188 161.677 110.22 161.672L108.846 151.767ZM113.965 155.883C114.05 156.499 114.044 157.423 113.603 158.42C113.18 159.377 112.554 159.947 112.207 160.217C112.033 160.352 111.889 160.442 111.812 160.489C111.733 160.536 111.679 160.565 111.677 160.566C111.674 160.567 111.682 160.563 111.733 160.537C111.774 160.517 111.846 160.48 111.923 160.44C112.271 160.26 112.773 159.985 113.363 159.563C113.946 159.147 114.557 158.63 115.194 157.975L108.028 151C107.607 151.433 107.406 151.518 107.331 151.557C107.298 151.574 107.268 151.589 107.212 151.617C107.167 151.64 107.087 151.681 107.004 151.725C106.878 151.792 106.488 151.997 106.074 152.318C105.624 152.668 104.924 153.321 104.458 154.375C103.974 155.469 103.955 156.505 104.06 157.257L113.965 155.883ZM115.165 158.005C116.192 156.967 117.18 155.254 118.164 153.359C119.264 151.241 120.694 148.21 122.538 143.981C126.231 135.513 131.68 122.026 139.607 100.987L130.249 97.4615C122.348 118.431 116.967 131.74 113.372 139.983C111.572 144.11 110.244 146.913 109.29 148.75C108.22 150.809 107.858 151.172 108.057 150.971L115.165 158.005ZM139.606 100.989C141.599 95.7062 142.976 91.8065 143.813 88.8924C144.603 86.1448 145.135 83.5813 144.819 81.3051L134.914 82.6793C134.904 82.6071 134.94 82.7912 134.846 83.4117C134.753 84.0207 134.559 84.8899 134.203 86.1301C133.486 88.6234 132.235 92.1958 130.249 97.4597L139.606 100.989ZM144.819 81.3051C144.436 78.5445 143.446 75.6911 140.643 74.1928L135.928 83.0117C135.664 82.8702 135.403 82.68 135.177 82.4465C134.958 82.2201 134.834 82.0188 134.776 81.9082C134.722 81.8056 134.731 81.7926 134.769 81.9248C134.806 82.0565 134.861 82.2961 134.914 82.6793L144.819 81.3051ZM140.843 74.3057C140.643 74.1867 140.473 74.0972 140.356 74.0377C140.146 73.9303 140.29 74.0052 140.291 74.0057C140.301 74.0113 140.752 74.2387 141.228 74.6776C141.83 75.2328 142.556 76.2032 142.749 77.5943L132.844 78.9685C133.045 80.4141 133.799 81.4293 134.446 82.0267C134.968 82.5079 135.483 82.7749 135.576 82.8246C135.659 82.869 135.733 82.9061 135.76 82.9194C135.802 82.9405 135.802 82.9404 135.811 82.9452C135.812 82.9457 135.777 82.9278 135.728 82.8988L140.843 74.3057ZM142.749 77.5943C142.894 78.6326 142.677 79.4958 142.448 80.0644C142.228 80.609 141.958 80.9865 141.808 81.1788C141.649 81.3834 141.511 81.5222 141.448 81.5835C141.38 81.6498 141.333 81.6893 141.333 81.69C141.331 81.6913 141.341 81.6826 141.387 81.6454C141.42 81.6184 141.495 81.5571 141.563 81.5002C141.704 81.3826 141.941 81.1827 142.193 80.9324L135.15 73.8329C135.208 73.7763 135.233 73.7583 135.169 73.8115C135.135 73.84 135.109 73.8613 135.044 73.9142C134.992 73.9569 134.909 74.0253 134.82 74.1011C134.698 74.2062 134.3 74.546 133.924 75.0282C133.654 75.3734 132.548 76.8351 132.844 78.9685L142.749 77.5943ZM142.193 80.9324C142.645 80.4839 142.981 80.0929 143.24 79.7687C143.359 79.62 143.464 79.4825 143.517 79.4144C143.587 79.3236 143.578 79.3366 143.549 79.3712C143.511 79.416 143.396 79.5488 143.215 79.7083C143.022 79.8788 142.782 80.0563 142.494 80.2134C141.918 80.5284 141.445 80.6021 141.341 80.6164L139.967 70.7113C139.373 70.7937 138.553 70.971 137.697 71.4395C136.808 71.9256 136.239 72.5297 135.92 72.9058C135.23 73.7203 135.574 73.413 135.15 73.8329L142.193 80.9324ZM141.341 80.6164C140.526 80.7295 139.747 80.5693 139.119 80.2493C138.527 79.9479 138.197 79.5736 138.053 79.3791C137.803 79.0402 137.965 79.0564 138.083 79.9075L147.988 78.5333C147.743 76.7694 147.205 74.9393 146.1 73.4419C144.939 71.869 142.796 70.3188 139.967 70.7113L141.341 80.6164ZM138.083 79.9075C138.109 80.0962 138.118 80.7031 137.976 81.6394C137.843 82.5219 137.631 83.3357 137.446 83.8395L146.832 87.2881C147.292 86.0366 147.649 84.5503 147.863 83.1358C148.069 81.775 148.204 80.0879 147.988 78.5333L138.083 79.9075ZM146.116 88.5937C149.407 84.2746 152.048 81.4415 154.148 79.676C156.29 77.8758 157.519 77.4836 158 77.4169L156.626 67.5117C153.511 67.9438 150.558 69.6309 147.715 72.0206C144.83 74.445 141.682 77.9122 138.161 82.5339L146.116 88.5937ZM158 77.4169C157.691 77.4597 157.186 77.4579 156.636 77.0978C156.336 76.9012 156.132 76.6623 156.02 76.4691C155.918 76.293 155.958 76.2686 155.994 76.5341L165.9 75.1598C165.524 72.451 164.272 70.1436 162.112 68.7303C160.126 67.431 158.024 67.3177 156.626 67.5117L158 77.4169ZM155.994 76.5341C155.988 76.4846 156.016 76.6337 155.92 77.062C155.827 77.4828 155.644 78.0386 155.34 78.7434C154.72 80.1817 153.788 81.8079 152.689 83.6318C151.668 85.3255 150.42 87.3192 149.52 89.0612C149.059 89.9535 148.597 90.9516 148.271 91.9732C147.964 92.9337 147.636 94.3331 147.85 95.8768L157.755 94.5025C157.837 95.0929 157.69 95.3498 157.796 95.0189C157.882 94.749 158.066 94.3066 158.405 93.6494C159.106 92.2924 160.074 90.7511 161.254 88.794C162.355 86.9671 163.607 84.8268 164.523 82.703C165.387 80.6995 166.29 77.9722 165.9 75.1598L155.994 76.5341ZM147.85 95.8768C148.094 97.6367 148.887 99.7969 150.998 101.176C152.953 102.453 155.026 102.372 156.22 102.207L154.845 92.3016C154.623 92.3325 155.459 92.1452 156.467 92.8043C157.632 93.5652 157.768 94.5949 157.755 94.5025L147.85 95.8768ZM156.22 102.207C157.845 101.981 159.366 101.337 160.573 100.711C161.837 100.056 163.075 99.2518 164.193 98.4469C166.416 96.8458 168.472 95.0138 169.734 93.7254L162.591 86.7279C161.713 87.6243 160.088 89.0793 158.349 90.3324C157.485 90.9545 156.671 91.4695 155.97 91.8331C155.624 92.0127 155.342 92.1357 155.127 92.2142C154.904 92.2954 154.816 92.3056 154.845 92.3016L156.22 102.207ZM169.721 93.739C173.096 90.3198 174.981 87.2023 176.81 84.1291L168.217 79.0145C166.444 81.9937 165.071 84.2145 162.604 86.7143L169.721 93.739ZM176.758 84.2145C176.78 84.1791 176.746 84.2371 176.671 84.3383C176.606 84.4259 176.404 84.6917 176.072 84.9867C175.681 85.3334 175.159 85.678 174.505 85.9107C173.968 86.102 173.48 86.1524 173.591 86.137L172.217 76.2319C172.216 76.232 172.178 76.2372 172.136 76.2436C172.09 76.2506 172.015 76.2623 171.925 76.2796C171.74 76.315 171.469 76.3768 171.153 76.4894C170.451 76.7392 169.88 77.1113 169.434 77.5074C168.771 78.0956 168.365 78.7744 168.269 78.9291L176.758 84.2145ZM173.591 86.137C172.035 86.3529 170.792 85.7831 170.047 85.2196C169.302 84.6562 168.415 83.6155 168.2 82.0592L178.105 80.685C177.874 79.0198 176.917 77.8777 176.079 77.2439C175.241 76.6101 173.882 76.0009 172.217 76.2319L173.591 86.137ZM168.2 82.0592C168.26 82.496 168.379 82.8814 168.353 82.7876C168.328 82.6979 168.157 82.1181 168.178 81.3573C168.198 80.6295 168.377 80.0743 168.49 79.7804C168.596 79.5049 168.698 79.3205 168.714 79.2922L177.463 84.136C177.545 83.9874 177.691 83.7137 177.824 83.3686C177.964 83.005 178.153 82.3998 178.174 81.6302C178.196 80.8276 178.017 80.2143 177.982 80.0877C177.945 79.9573 178.052 80.3027 178.105 80.685L168.2 82.0592ZM168.691 79.3338C166.688 83.0355 164.414 85.8858 163.12 87.1942L170.228 94.2277C172.245 92.1893 175.069 88.5576 177.486 84.0944L168.691 79.3338ZM174.127 80.1818L177.016 84.2632L177.024 84.2576L174.127 80.1818ZM171.191 73.4262L167.872 69.6866L167.872 69.6866L171.191 73.4262ZM170.71 73.1598L174.029 76.8994L174.133 76.8073L174.231 76.7096L170.71 73.1598ZM174.766 81.9812L178.041 85.7591L178.047 85.7542L178.052 85.7492L174.766 81.9812ZM188.746 87.0935L192.3 90.6102L192.304 90.6058L188.746 87.0935ZM195.097 78.4386L199.393 80.9959L199.504 80.8095L199.599 80.6141L195.097 78.4386ZM195.672 78.5809L200.069 80.9612L200.272 80.5857L200.409 80.1812L195.672 78.5809ZM189.257 87.5778L185.703 84.0611L185.648 84.117L185.594 84.1746L189.257 87.5778ZM175.316 90.3499C173.721 90.5712 172.509 90.3187 171.856 90.0113C171.218 89.7113 171.546 89.631 171.617 90.1363L161.711 91.5105C162.235 95.2845 164.863 97.7725 167.597 99.0592C170.315 100.339 173.545 100.691 176.69 100.255L175.316 90.3499ZM171.617 90.1363C171.537 89.5599 171.626 89.0097 172.416 88.0642C173.357 86.9373 174.847 85.7981 177.016 84.2632L171.239 76.1004C169.211 77.5354 166.644 79.3744 164.74 81.6546C162.685 84.1161 161.141 87.4018 161.711 91.5105L171.617 90.1363ZM177.024 84.2576C181.866 80.8166 183.747 76.314 183.238 72.6433L173.333 74.0175C173.217 73.1797 173.768 74.3032 171.231 76.1061L177.024 84.2576ZM183.238 72.6433C182.998 70.9119 182.153 69.0938 180.525 67.7831C178.83 66.4185 176.711 65.9467 174.636 66.2346L176.01 76.1398C175.678 76.1858 174.949 76.1319 174.254 75.5725C173.626 75.0671 173.392 74.4415 173.333 74.0175L183.238 72.6433ZM174.636 66.2346C171.591 66.6571 169.24 68.4729 167.872 69.6866L174.51 77.1659C174.951 76.7748 175.326 76.497 175.635 76.3185C175.946 76.1384 176.063 76.1324 176.01 76.1398L174.636 66.2346ZM167.872 69.6866C167.749 69.7956 167.651 69.8874 167.586 69.9482C167.494 70.034 167.524 70.0057 167.552 69.9809C167.574 69.9617 167.796 69.7603 168.135 69.5498C168.523 69.3087 169.158 68.9935 170.005 68.8761L171.379 78.7812C172.28 78.6562 172.968 78.3199 173.413 78.0431C173.81 77.7968 174.094 77.5451 174.19 77.4601C174.292 77.3695 174.408 77.2599 174.421 77.2479C174.46 77.2109 174.485 77.1885 174.51 77.1659L167.872 69.6866ZM170.005 68.8761C171.561 68.6602 172.804 69.2301 173.549 69.7935C174.294 70.357 175.18 71.3976 175.396 72.9539L165.491 74.3281C165.722 75.9933 166.678 77.1354 167.516 77.7692C168.354 78.403 169.714 79.0123 171.379 78.7812L170.005 68.8761ZM175.396 72.9539C175.386 72.8778 175.451 73.2687 175.434 73.7409C175.413 74.2996 175.293 74.8713 175.06 75.4171C174.658 76.3614 174.072 76.8608 174.029 76.8994L167.391 69.4202C167.051 69.7221 166.324 70.4076 165.86 71.4994C165.259 72.9093 165.465 74.1424 165.491 74.3281L175.396 72.9539ZM174.231 76.7096C174.674 76.2704 175.34 75.6713 176.124 75.1632C176.93 74.6408 177.639 74.3589 178.195 74.2818L176.821 64.3767C172.036 65.0406 168.454 68.3552 167.189 69.61L174.231 76.7096ZM178.195 74.2818C178.189 74.2827 178.225 74.279 178.273 74.2859C178.322 74.2929 178.294 74.2978 178.202 74.2514C178.103 74.2017 177.889 74.0706 177.677 73.7981C177.447 73.5034 177.325 73.1762 177.289 72.9134L187.194 71.5392C186.762 68.4253 184.79 66.3688 182.687 65.3137C180.743 64.3382 178.598 64.1302 176.821 64.3767L178.195 74.2818ZM177.289 72.9134C177.301 73.0055 177.293 72.9831 177.289 72.9941C177.251 73.0803 177.106 73.3507 176.622 73.8518C176.131 74.3615 175.475 74.9247 174.55 75.6769C173.693 76.3743 172.568 77.2635 171.479 78.2131L178.052 85.7492C178.97 84.9491 179.853 84.2547 180.862 83.4334C181.804 82.667 182.872 81.7763 183.819 80.7954C185.793 78.7496 187.775 75.7258 187.194 71.5392L177.289 72.9134ZM171.491 78.2032C170.244 79.2834 168.815 80.7723 167.715 82.5412C166.657 84.2432 165.553 86.7786 165.958 89.6998L175.863 88.3256C175.913 88.6862 175.745 88.5653 176.208 87.8214C176.629 87.1443 177.304 86.3976 178.041 85.7591L171.491 78.2032ZM165.958 89.6998C166.789 95.6876 172.56 99.1622 179.078 98.2579L177.704 88.3528C176.442 88.5279 175.923 88.2361 175.838 88.1807C175.748 88.1221 175.839 88.1527 175.863 88.3256L165.958 89.6998ZM179.078 98.2579C184.314 97.5316 188.732 94.2165 192.3 90.6102L185.192 83.5768C182.137 86.6641 179.66 88.0815 177.704 88.3528L179.078 98.2579ZM192.304 90.6058C195.679 87.1867 197.564 84.0692 199.393 80.9959L190.8 75.8813C189.027 78.8605 187.655 81.0813 185.187 83.5811L192.304 90.6058ZM199.599 80.6141C199.573 80.6665 199.252 81.366 198.453 82.01C197.991 82.3822 197.474 82.6538 196.942 82.8257C196.492 82.971 196.098 83.0144 196.174 83.0038L194.8 73.0987C194.614 73.1245 193.372 73.2619 192.179 74.2234C191.255 74.968 190.793 75.8536 190.595 76.2631L199.599 80.6141ZM196.174 83.0038C194.618 83.2197 193.375 82.6499 192.63 82.0864C191.885 81.523 190.999 80.4823 190.783 78.9261L200.688 77.5518C200.457 75.8867 199.501 74.7446 198.663 74.1107C197.825 73.4769 196.465 72.8677 194.8 73.0987L196.174 83.0038ZM190.783 78.9261C190.796 79.0218 190.761 78.7963 190.748 78.5415C190.731 78.1745 190.757 77.8061 190.823 77.4491C190.875 77.1689 190.941 76.9649 190.947 76.9454C190.956 76.9171 190.962 76.9015 190.935 76.9807L200.409 80.1812C200.421 80.1439 200.456 80.0409 200.487 79.9437C200.515 79.8552 200.594 79.6007 200.654 79.2777C200.829 78.3416 200.69 77.5677 200.688 77.5518L190.783 78.9261ZM191.275 76.2007C189.271 79.9023 186.998 82.7526 185.703 84.0611L192.812 91.0945C194.828 89.0562 197.653 85.4244 200.069 80.9612L191.275 76.2007ZM185.594 84.1746C182.252 87.7722 179.646 89.7491 175.316 90.3499L176.69 100.255C184.345 99.1931 188.919 95.2875 192.92 90.981L185.594 84.1746ZM222.6 82.9519L219.046 79.4351L219.028 79.4536L219.01 79.4721L222.6 82.9519ZM205.923 86.8203L210.876 86.1332L209.644 77.2532L202.736 82.9677L205.923 86.8203ZM214.331 69.7732L209.749 71.7756L211.266 75.2463L215.018 74.7258L214.331 69.7732ZM212.223 79.3942L216.211 82.4103L216.249 82.3592L216.287 82.3071L212.223 79.3942ZM210.049 82.1389L206.061 79.1228L205.421 79.9691L205.18 81.0024L210.049 82.1389ZM222.089 82.4676L225.61 86.0173L225.629 85.9987L225.647 85.9799L222.089 82.4676ZM228.44 73.8127L232.736 76.37L232.847 76.1835L232.941 75.9882L228.44 73.8127ZM229.015 73.955L233.412 76.3353L233.615 75.9598L233.752 75.5553L229.015 73.955ZM205.881 85.7156L209.497 89.169L210.607 88.0068L210.832 86.4155L205.881 85.7156ZM208.797 76.3157L213.192 78.7004L213.216 78.6557L213.24 78.6104L208.797 76.3157ZM213.489 70.1121L215.872 74.5081L220.33 72.0916L217.851 67.6675L213.489 70.1121ZM210.264 80.8875L205.505 79.3555L214.252 83.9036L210.264 80.8875ZM219.01 79.4721C217.511 81.0189 215.915 82.5519 214.265 83.7517C212.578 84.9782 211.185 85.5956 210.105 85.7454L211.48 95.6505C214.867 95.1806 217.823 93.5287 220.147 91.8391C222.507 90.1227 224.581 88.0925 226.191 86.4316L219.01 79.4721ZM210.105 85.7454C209.827 85.7841 209.766 85.7559 209.86 85.773C209.979 85.7947 210.238 85.8709 210.519 86.081C210.8 86.2918 210.934 86.5104 210.972 86.5872C210.998 86.6401 210.93 86.5257 210.876 86.1332L200.971 87.5074C201.296 89.8502 202.248 92.3799 204.524 94.0849C206.791 95.7829 209.406 95.9382 211.48 95.6505L210.105 85.7454ZM202.736 82.9677C201.154 84.2764 199.648 85.3841 198.306 86.1829C196.893 87.0247 196.009 87.3124 195.616 87.367L196.99 97.2721C199.321 96.9488 201.554 95.8879 203.423 94.775C205.364 93.6193 207.305 92.1663 209.111 90.6729L202.736 82.9677ZM195.616 87.367C195.419 87.3943 195.456 87.3537 195.628 87.4104C195.81 87.4704 195.948 87.5747 196.014 87.6431C196.061 87.6928 196 87.6494 195.904 87.4141C195.807 87.1788 195.701 86.8145 195.63 86.305L185.725 87.6792C186.04 89.951 186.869 92.549 188.785 94.5532C190.908 96.7737 193.839 97.7093 196.99 97.2721L195.616 87.367ZM195.63 86.305C195.312 84.0158 196.408 80.2551 199.075 76.6096C201.744 72.9611 204.945 70.8482 207.272 70.5254L205.898 60.6203C199.78 61.469 194.461 65.9798 191.004 70.7052C187.545 75.4334 184.909 81.7967 185.725 87.6792L195.63 86.305ZM207.272 70.5254C207.787 70.454 208.346 70.5384 208.794 70.7575C209.188 70.9506 209.52 71.2523 209.749 71.7756L218.912 67.7709C216.372 61.959 210.529 59.9778 205.898 60.6203L207.272 70.5254ZM215.018 74.7258C214.784 74.7583 214.108 74.829 213.253 74.4508C212.762 74.234 212.193 73.8551 211.723 73.2435C211.246 72.6241 211.032 71.9753 210.961 71.4624L220.866 70.0881C220.55 67.8097 219.123 66.113 217.298 65.3055C215.822 64.6526 214.422 64.7126 213.643 64.8207L215.018 74.7258ZM210.961 71.4624C210.998 71.7299 210.974 72.1768 210.496 73.072C209.941 74.1112 209.242 74.9699 208.159 76.4813L216.287 82.3071C216.971 81.3522 218.352 79.5902 219.318 77.781C220.36 75.8276 221.297 73.1982 220.866 70.0881L210.961 71.4624ZM208.235 76.3781C208.014 76.6699 207.721 77.0316 207.318 77.5304C206.941 77.9961 206.492 78.5541 206.061 79.1228L214.037 85.155C214.358 84.7311 214.713 84.289 215.095 83.8166C215.45 83.3773 215.868 82.8629 216.211 82.4103L208.235 76.3781ZM205.18 81.0024C204.651 83.27 204.766 85.2448 204.942 86.5123L214.847 85.1381C214.781 84.6622 214.751 83.9919 214.918 83.2755L205.18 81.0024ZM204.942 86.5123C205.065 87.3989 205.443 89.4041 207.075 91.0742C208.962 93.0062 211.529 93.5336 214.025 93.1873L212.651 83.2822C212.488 83.3049 212.656 83.254 213.023 83.3567C213.428 83.4705 213.865 83.7147 214.228 84.0864C214.563 84.4293 214.719 84.7601 214.784 84.9295C214.846 85.0916 214.853 85.1798 214.847 85.1381L204.942 86.5123ZM214.025 93.1873C216.688 92.8179 218.966 91.549 220.746 90.2728C222.551 88.9788 224.209 87.4071 225.61 86.0173L218.567 78.9178C217.235 80.2393 216.043 81.3396 214.919 82.1456C213.77 82.9694 213.039 83.2284 212.651 83.2822L214.025 93.1873ZM225.647 85.9799C229.022 82.5607 230.907 79.4432 232.736 76.37L224.143 71.2554C222.37 74.2346 220.997 76.4554 218.53 78.9552L225.647 85.9799ZM232.941 75.9882C232.916 76.0406 232.595 76.7401 231.796 77.384C231.334 77.7563 230.817 78.0279 230.285 78.1998C229.835 78.3451 229.441 78.3885 229.517 78.3779L228.143 68.4728C227.957 68.4985 226.715 68.636 225.521 69.5975C224.597 70.3421 224.136 71.2277 223.938 71.6372L232.941 75.9882ZM229.517 78.3779C227.961 78.5938 226.718 78.024 225.973 77.4605C225.228 76.8971 224.342 75.8564 224.126 74.3001L234.031 72.9259C233.8 71.2607 232.843 70.1186 232.005 69.4848C231.167 68.851 229.808 68.2418 228.143 68.4728L229.517 78.3779ZM224.126 74.3001C224.139 74.3959 224.103 74.1704 224.091 73.9156C224.074 73.5486 224.099 73.1801 224.166 72.8232C224.218 72.5429 224.284 72.3389 224.29 72.3194C224.299 72.2911 224.304 72.2755 224.278 72.3547L233.752 75.5553C233.764 75.518 233.799 75.415 233.83 75.3178C233.858 75.2293 233.937 74.9748 233.997 74.6518C234.171 73.7157 234.033 72.9418 234.031 72.9259L224.126 74.3001ZM224.618 71.5747C222.614 75.2764 220.341 78.1267 219.046 79.4351L226.154 86.4686C228.171 84.4302 230.996 80.7985 233.412 76.3353L224.618 71.5747ZM205.916 61.9504C200.005 62.7705 195.82 67.4862 193.433 71.8627C190.977 76.3667 189.55 82.0346 190.231 86.9429L200.137 85.5687C199.82 83.2859 200.508 79.7762 202.212 76.651C203.986 73.3983 206.01 72.0331 207.29 71.8555L205.916 61.9504ZM190.231 86.9429C190.398 88.1455 190.811 90.1517 192.067 91.9067C192.743 92.8512 193.728 93.8127 195.108 94.4441C196.51 95.0858 198.008 95.243 199.457 95.0419L198.083 85.1368C198.279 85.1096 198.734 85.1061 199.269 85.3509C199.782 85.5856 200.075 85.9142 200.2 86.0884C200.309 86.2407 200.305 86.293 200.26 86.1525C200.218 86.0238 200.172 85.8269 200.137 85.5687L190.231 86.9429ZM199.457 95.0419C202.021 94.6862 204.2 93.4888 205.756 92.4065C207.36 91.2914 208.659 90.047 209.497 89.169L202.265 82.2623C201.698 82.8565 200.912 83.5949 200.047 84.1965C199.134 84.831 198.46 85.0844 198.083 85.1368L199.457 95.0419ZM210.832 86.4155C211.215 83.7098 212.292 80.3583 213.192 78.7004L204.403 73.931C202.826 76.8368 201.445 81.378 200.93 85.0157L210.832 86.4155ZM213.24 78.6104C213.693 77.7329 214.337 76.6148 215.004 75.6678C215.337 75.1952 215.628 74.835 215.856 74.5914C216.123 74.3066 216.132 74.3671 215.872 74.5081L211.107 65.7161C209.161 66.7705 207.679 68.7023 206.831 69.9065C205.828 71.329 204.952 72.8649 204.355 74.021L213.24 78.6104ZM217.851 67.6675C215.407 63.3077 210.557 61.3065 205.916 61.9504L207.29 71.8555C208.314 71.7135 208.914 72.1766 209.128 72.5567L217.851 67.6675ZM214.252 83.9036C216.201 81.327 217.537 79.2035 218.392 77.4798C218.818 76.6197 219.165 75.7786 219.397 74.9709C219.6 74.2677 219.848 73.1538 219.676 71.919L209.771 73.2932C209.66 72.4942 209.838 72.0286 209.788 72.2038C209.767 72.2745 209.678 72.542 209.432 73.0384C208.942 74.0278 207.987 75.6091 206.277 77.8714L214.252 83.9036ZM219.676 71.919C219.488 70.5646 218.755 69.0186 217.183 68.04C215.788 67.1718 214.385 67.161 213.54 67.2782L214.914 77.1833C214.288 77.2703 213.11 77.2838 211.897 76.5291C210.508 75.664 209.914 74.3208 209.771 73.2932L219.676 71.919ZM213.54 67.2782C211.577 67.5506 210.415 68.8194 210.122 69.1414C209.65 69.6597 209.292 70.2113 209.046 70.6249C208.537 71.4795 208.067 72.496 207.667 73.4393C206.849 75.3702 206.052 77.6553 205.505 79.3555L215.024 82.4194C215.524 80.8648 216.218 78.8896 216.875 77.3398C217.213 76.5428 217.475 76.014 217.638 75.7412C217.727 75.5911 217.689 75.6836 217.515 75.8751C217.424 75.9752 217.207 76.2002 216.861 76.4381C216.529 76.6657 215.865 77.0514 214.914 77.1833L213.54 67.2782ZM237.58 89.147L242.453 90.2672L244.772 80.1788L235.428 84.6338L237.58 89.147ZM204.859 109.845L200.945 106.734L200.944 106.735L204.859 109.845ZM254.323 78.5507L250.545 75.276L250.52 75.3049L250.495 75.3343L254.323 78.5507ZM241.119 87.4346L238.901 82.9534L236.324 84.2285L236.13 87.0964L241.119 87.4346ZM203.121 108.92L206.863 112.236L206.867 112.232L203.121 108.92ZM237.85 87.888L239.893 92.4515L242.256 91.3935L242.756 88.853L237.85 87.888ZM237.163 78.9325L241.409 76.2932L238.868 72.2038L234.685 74.5894L237.163 78.9325ZM237.605 77.3164L236.004 82.0534L238.165 82.7835L240.133 81.63L237.605 77.3164ZM229.031 73.9527L224.665 71.5154L224.594 71.6443L224.529 71.7772L229.031 73.9527ZM228.456 73.8104L224.105 71.3478L223.871 71.7606L223.719 72.2101L228.456 73.8104ZM238.481 78.0278L235.717 73.8612L230.921 77.0424L234.741 81.3467L238.481 78.0278ZM241.146 86.4313L236.146 86.4988L236.25 94.2051L243.245 90.9692L241.146 86.4313ZM253.812 78.0664L250.125 74.689L250.108 74.7073L250.091 74.7258L253.812 78.0664ZM260.162 69.4115L264.459 71.9688L264.57 71.7823L264.664 71.587L260.162 69.4115ZM260.737 69.5538L265.135 71.9341L265.338 71.5586L265.474 71.1541L260.737 69.5538ZM235.428 84.6338C223.242 90.4441 209.943 95.4109 200.945 106.734L208.774 112.956C215.943 103.934 226.294 100.067 239.732 93.6603L235.428 84.6338ZM200.944 106.735C196.54 112.279 193.061 119.22 194.078 126.555L203.983 125.181C203.52 121.838 205.048 117.646 208.774 112.955L200.944 106.735ZM194.078 126.555C194.926 132.663 200.093 136.765 205.437 136.024L204.063 126.119C204.272 126.09 204.392 126.122 204.419 126.13C204.45 126.139 204.429 126.138 204.379 126.098C204.333 126.061 204.262 125.989 204.19 125.859C204.119 125.732 204.03 125.518 203.983 125.181L194.078 126.555ZM205.437 136.024C216.236 134.526 224.718 125.925 230.596 117.133C236.605 108.145 240.746 97.6958 242.453 90.2672L232.707 88.0269C231.264 94.3063 227.597 103.626 222.283 111.575C216.837 119.722 210.48 125.229 204.063 126.119L205.437 136.024ZM250.495 75.3343C250.021 75.8985 248.508 77.1642 246.086 78.7782C243.814 80.2923 241.186 81.8222 238.901 82.9534L243.337 91.9157C246.039 90.578 249.037 88.8288 251.631 87.0996C254.076 85.4702 256.671 83.5285 258.151 81.7671L250.495 75.3343ZM236.13 87.0964C235.73 92.997 231.625 102.708 225.036 111.459C218.395 120.278 210.399 126.572 203.264 127.562L204.638 137.467C215.808 135.918 225.903 126.931 233.024 117.474C240.197 107.949 245.523 96.3901 246.107 87.7727L236.13 87.0964ZM203.264 127.562C201.686 127.781 200.898 127.499 200.648 127.355C200.546 127.296 200.508 127.25 200.478 127.204C200.445 127.153 200.346 126.979 200.291 126.582L190.386 127.956C190.867 131.426 192.691 134.304 195.64 136.01C198.409 137.613 201.64 137.883 204.638 137.467L203.264 127.562ZM200.291 126.582C199.748 122.666 202.071 117.643 206.863 112.236L199.378 105.604C194.184 111.466 189.206 119.45 190.386 127.956L200.291 126.582ZM206.867 112.232C216.426 101.419 224.975 99.1306 239.893 92.4515L235.807 83.3245C221.971 89.519 210.742 92.7507 199.375 105.608L206.867 112.232ZM242.756 88.853C243.068 87.2666 243.602 84.162 243.268 81.7503L233.363 83.1245C233.436 83.6546 233.283 85.1986 232.944 86.9231L242.756 88.853ZM243.268 81.7503C243.004 79.852 242.448 77.9652 241.409 76.2932L232.916 81.5718C233.021 81.7401 233.233 82.1899 233.363 83.1245L243.268 81.7503ZM234.685 74.5894C234.258 74.8332 233.987 75.0077 233.54 75.2294C233.341 75.3277 233.18 75.3966 233.062 75.4394C232.932 75.4868 232.942 75.4696 233.071 75.4518L234.445 85.357C235.912 85.1535 237.216 84.5676 237.975 84.1916C238.775 83.7961 239.553 83.3254 239.64 83.2757L234.685 74.5894ZM233.071 75.4518C233.106 75.4469 233.336 75.4056 233.772 75.5086C233.992 75.5607 234.579 75.7222 235.221 76.2162C235.963 76.7873 236.72 77.776 236.908 79.1344L227.003 80.5086C227.498 84.0778 230.674 85.0518 231.472 85.2405C232.611 85.5097 233.701 85.4602 234.445 85.357L233.071 75.4518ZM236.908 79.1344C237.095 80.4818 236.642 81.4895 236.374 81.9501C236.105 82.4108 235.834 82.6622 235.772 82.7187C235.645 82.8349 235.672 82.7823 235.973 82.6204C236.228 82.483 236.528 82.3481 236.795 82.2481C236.925 82.1994 237.017 82.17 237.066 82.1559C237.135 82.1361 237.065 82.1615 236.892 82.1856L235.518 72.2804C234.103 72.4767 232.404 73.1837 231.228 73.8177C230.592 74.1606 229.763 74.664 229.03 75.3328C228.666 75.6655 228.154 76.1921 227.731 76.9205C227.307 77.6486 226.782 78.9161 227.003 80.5086L236.908 79.1344ZM236.892 82.1856C236.787 82.2001 236.718 82.2022 236.688 82.2026C236.656 82.203 236.635 82.2019 236.618 82.2005C236.604 82.1993 236.567 82.196 236.503 82.1848C236.47 82.179 236.416 82.1689 236.345 82.152C236.281 82.1367 236.16 82.1061 236.004 82.0534L239.205 72.5794C238.533 72.3523 237.859 72.2683 237.425 72.2332C236.916 72.1919 236.245 72.1796 235.518 72.2804L236.892 82.1856ZM240.133 81.63C242.47 80.2601 244.672 77.9346 246.218 75.4291C247.736 72.9681 249.121 69.5117 248.613 65.8498L238.708 67.224C238.767 67.648 238.614 68.7084 237.707 70.1793C236.827 71.6056 235.718 72.6269 235.076 73.0029L240.133 81.63ZM248.613 65.8498C247.916 60.8207 243.663 57.7129 239.191 58.3333L240.565 68.2385C240.068 68.3075 239.576 68.1745 239.198 67.882C238.773 67.5531 238.705 67.2015 238.708 67.224L248.613 65.8498ZM239.191 58.3333C235.463 58.8506 232.531 61.0683 230.354 63.3828C228.142 65.7331 226.26 68.6598 224.665 71.5154L233.397 76.3901C234.827 73.8286 236.243 71.7167 237.637 70.2352C239.064 68.7179 240.045 68.3107 240.565 68.2385L239.191 58.3333ZM224.529 71.7772C224.555 71.7248 224.876 71.0253 225.675 70.3814C226.137 70.0091 226.654 69.7375 227.186 69.5656C227.636 69.4203 228.03 69.3769 227.954 69.3875L229.328 79.2926C229.513 79.2669 230.756 79.1294 231.949 78.1679C232.873 77.4233 233.335 76.5377 233.533 76.1282L224.529 71.7772ZM227.954 69.3875C229.51 69.1716 230.753 69.7414 231.498 70.3049C232.243 70.8683 233.129 71.909 233.345 73.4653L223.44 74.8395C223.671 76.5047 224.627 77.6468 225.465 78.2806C226.303 78.9144 227.663 79.5236 229.328 79.2926L227.954 69.3875ZM233.345 73.4653C233.332 73.3695 233.367 73.595 233.379 73.8498C233.397 74.2168 233.371 74.5853 233.305 74.9422C233.253 75.2224 233.187 75.4264 233.181 75.446C233.172 75.4742 233.166 75.4898 233.193 75.4107L223.719 72.2101C223.707 72.2474 223.671 72.3504 223.641 72.4476C223.613 72.5361 223.534 72.7906 223.473 73.1136C223.299 74.0497 223.438 74.8236 223.44 74.8395L233.345 73.4653ZM232.808 76.273C235.613 71.3157 237.657 68.6935 239.211 67.2737C240.574 66.0286 241.54 65.7156 242.583 65.5709L241.209 55.6658C238.22 56.0804 235.365 57.2415 232.465 59.8916C229.756 62.367 227.096 66.0612 224.105 71.3478L232.808 76.273ZM242.583 65.5709C242.848 65.5341 242.955 65.5636 242.942 65.5604C242.937 65.5592 242.913 65.5526 242.876 65.5347C242.839 65.5167 242.801 65.4925 242.764 65.4633C242.685 65.4005 242.665 65.3538 242.678 65.3786C242.694 65.409 242.749 65.5286 242.782 65.7704L252.687 64.3962C252.339 61.8864 251.191 59.3965 249.006 57.6509C246.779 55.8711 243.991 55.2798 241.209 55.6658L242.583 65.5709ZM242.782 65.7704C242.811 65.9808 242.744 66.9963 241.317 68.8498C239.994 70.5696 237.979 72.3608 235.717 73.8612L241.245 82.1944C244.169 80.2544 247.084 77.7525 249.241 74.9497C251.296 72.2806 253.263 68.544 252.687 64.3962L242.782 65.7704ZM234.741 81.3467C234.95 81.5815 235.256 82.0857 235.546 82.9003C235.823 83.6773 235.995 84.4844 236.077 85.08L245.982 83.7058C245.704 81.6969 244.809 77.6255 242.22 74.7089L234.741 81.3467ZM236.077 85.08C236.076 85.0725 236.083 85.1269 236.094 85.2616C236.103 85.3847 236.112 85.5326 236.12 85.6941C236.136 86.0211 236.144 86.3357 236.146 86.4988L246.145 86.3638C246.14 85.9313 246.106 84.5953 245.982 83.7058L236.077 85.08ZM243.245 90.9692C245.9 89.7411 248.742 88.126 251.218 86.4954C253.605 84.9231 256.009 83.1032 257.532 81.407L250.091 74.7258C249.45 75.4398 247.922 76.692 245.717 78.1444C243.601 79.5384 241.192 80.9007 239.047 81.8933L243.245 90.9692ZM257.499 81.4437C260.586 78.0734 262.535 75.2013 264.459 71.9688L255.866 66.8542C254.187 69.6742 252.631 71.9527 250.125 74.689L257.499 81.4437ZM264.664 71.587C264.639 71.6394 264.318 72.3389 263.519 72.9829C263.057 73.3551 262.54 73.6267 262.008 73.7986C261.558 73.9439 261.164 73.9873 261.24 73.9767L259.866 64.0716C259.68 64.0974 258.438 64.2348 257.244 65.1963C256.32 65.9409 255.858 66.8265 255.661 67.2361L264.664 71.587ZM261.24 73.9767C259.684 74.1926 258.441 73.6228 257.696 73.0593C256.951 72.4959 256.064 71.4552 255.849 69.899L265.754 68.5247C265.523 66.8596 264.566 65.7175 263.728 65.0836C262.89 64.4498 261.531 63.8406 259.866 64.0716L261.24 73.9767ZM255.849 69.899C255.862 69.9947 255.826 69.7692 255.814 69.5144C255.797 69.1474 255.822 68.779 255.889 68.422C255.941 68.1418 256.007 67.9378 256.013 67.9183C256.022 67.89 256.027 67.8744 256 67.9536L265.474 71.1541C265.487 71.1167 265.522 71.0138 265.553 70.9166C265.581 70.8281 265.66 70.5736 265.72 70.2506C265.894 69.3145 265.756 68.5406 265.754 68.5247L255.849 69.899ZM256.34 67.1736C254.402 70.7539 252.03 73.5624 250.545 75.276L258.101 81.8254C259.68 80.0044 262.653 76.5186 265.135 71.9341L256.34 67.1736ZM303.388 71.1882L299.83 67.6758L299.818 67.6882L299.805 67.7007L303.388 71.1882ZM309.739 62.5333L314.036 65.0906L314.147 64.9041L314.241 64.7087L309.739 62.5333ZM310.314 62.6756L314.711 65.0559L314.915 64.6804L315.051 64.2759L310.314 62.6756ZM303.9 71.6725L300.346 68.1558L300.331 68.1703L300.317 68.185L303.9 71.6725ZM287.768 65.8592L292.476 67.5433L283.54 63.1906L287.768 65.8592ZM282.932 73.0268L287.044 75.8712L287.045 75.8706L282.932 73.0268ZM271.714 65.8099L276.425 67.4852L267.328 63.4082L271.714 65.8099ZM266.136 75.6346L262.067 72.7294L262.062 72.7359L266.136 75.6346ZM254.508 77.47L258.206 80.8348L258.212 80.829L258.217 80.8231L254.508 77.47ZM256.802 75.5969L260.581 78.8717L260.69 78.7459L260.79 78.6131L256.802 75.5969ZM266.392 73.8778L262.322 70.9736L262.321 70.9752L266.392 73.8778ZM272.348 62.779L276.881 64.8887L276.887 64.8775L276.892 64.8664L272.348 62.779ZM274.516 57.5919L278.356 60.7943L278.432 60.7029L278.504 60.608L274.516 57.5919ZM276.195 61.69L271.447 60.1243L271.444 60.1311L276.195 61.69ZM282.381 72.659L278.309 69.758L278.299 69.7725L278.288 69.7871L282.381 72.659ZM289.187 61.2758L293.71 63.4057L293.72 63.3845L293.73 63.3632L289.187 61.2758ZM291.996 55.1112L288.008 52.0951L288.008 52.0951L291.996 55.1112ZM294.118 53.5952L296.523 57.9787L296.559 57.9589L296.595 57.9384L294.118 53.5952ZM293.465 59.294L298.188 60.9353L298.19 60.9286L293.465 59.294ZM285.281 74.3112C285.452 75.5453 285.892 77.7196 287.523 79.4922C289.466 81.603 292.139 82.1835 294.703 81.8277L293.329 71.9225C293.182 71.9429 293.369 71.8915 293.746 72.0044C294.167 72.1302 294.574 72.3859 294.882 72.7204C295.156 73.0183 295.245 73.2617 295.251 73.2794C295.257 73.2935 295.222 73.1986 295.186 72.937L285.281 74.3112ZM294.703 81.8277C299.673 81.1382 304.139 77.5851 306.971 74.6756L299.805 67.7007C297.389 70.1836 294.897 71.705 293.329 71.9225L294.703 81.8277ZM306.947 74.7005C310.322 71.2814 312.207 68.1638 314.036 65.0906L305.443 59.976C303.67 62.9552 302.297 65.176 299.83 67.6758L306.947 74.7005ZM314.241 64.7087C314.216 64.7612 313.895 65.4607 313.096 66.1047C312.634 66.4769 312.116 66.7485 311.584 66.9204C311.135 67.0657 310.741 67.1091 310.817 67.0985L309.443 57.1934C309.257 57.2192 308.014 57.3566 306.821 58.3181C305.897 59.0627 305.435 59.9483 305.237 60.3578L314.241 64.7087ZM310.817 67.0985C309.261 67.3144 308.018 66.7446 307.273 66.1811C306.528 65.6176 305.641 64.577 305.425 63.0207L315.331 61.6465C315.1 59.9813 314.143 58.8393 313.305 58.2054C312.467 57.5716 311.108 56.9624 309.443 57.1934L310.817 67.0985ZM305.425 63.0207C305.439 63.1165 305.403 62.891 305.391 62.6362C305.374 62.2692 305.399 61.9008 305.466 61.5438C305.518 61.2636 305.584 61.0596 305.59 61.0401C305.599 61.0118 305.604 60.9962 305.577 61.0754L315.051 64.2759C315.064 64.2385 315.099 64.1356 315.13 64.0383C315.157 63.9499 315.237 63.6954 315.297 63.3724C315.471 62.4363 315.333 61.6624 315.331 61.6465L305.425 63.0207ZM305.917 60.2953C303.913 63.997 301.64 66.8473 300.346 68.1558L307.454 75.1892C309.471 73.1508 312.295 69.5191 314.711 65.0559L305.917 60.2953ZM300.317 68.185C297.784 70.7876 294.143 73.6975 290.59 74.1905L291.964 84.0956C299.089 83.1071 304.767 77.9498 307.483 75.1599L300.317 68.185ZM290.59 74.1905C290.342 74.2248 290.236 74.2005 290.243 74.2019C290.254 74.2044 290.345 74.2285 290.464 74.3146C290.583 74.401 290.671 74.5069 290.724 74.5991C290.774 74.6869 290.769 74.7205 290.761 74.6614L280.856 76.0356C281.199 78.5066 282.431 80.845 284.6 82.4148C286.761 83.9793 289.392 84.4524 291.964 84.0956L290.59 74.1905ZM290.761 74.6614C290.596 73.4754 290.987 71.7064 292.476 67.5433L283.06 64.1751C281.749 67.8412 280.295 71.9918 280.856 76.0356L290.761 74.6614ZM283.54 63.1906C282.379 65.0303 280.92 67.146 278.82 70.1829L287.045 75.8706C289.107 72.8884 290.699 70.5828 291.996 68.5278L283.54 63.1906ZM278.82 70.1824C277.141 72.6092 275.692 74.2355 274.524 75.2419C273.31 76.2888 272.719 76.3923 272.737 76.3896L274.112 86.2948C276.746 85.9293 279.081 84.5162 281.053 82.8167C283.072 81.0766 285.069 78.7265 287.044 75.8712L278.82 70.1824ZM272.737 76.3896C272.565 76.4135 273.109 76.2919 273.808 76.7767C274.156 77.0175 274.38 77.3052 274.501 77.5298C274.611 77.7329 274.594 77.8044 274.57 77.6295L264.665 79.0038C264.975 81.2386 265.973 83.5127 268.111 84.9952C270.162 86.4169 272.432 86.5279 274.112 86.2948L272.737 76.3896ZM274.57 77.6295C274.358 76.0968 274.499 72.8998 276.425 67.4852L267.003 64.1347C264.774 70.4017 264.152 75.3065 264.665 79.0038L274.57 77.6295ZM267.328 63.4082C265.92 65.9798 264.303 69.5967 262.067 72.7294L270.205 78.5399C272.897 74.7699 275.204 69.8466 276.099 68.2117L267.328 63.4082ZM262.062 72.7359C257.832 78.6803 255.123 79.0556 255.607 78.9884L256.981 88.8935C260.298 88.4333 265.146 85.65 270.21 78.5334L262.062 72.7359ZM255.607 78.9884C255.415 79.015 255.312 79.0128 255.293 79.0116C255.267 79.0099 255.441 79.0147 255.726 79.136C256.043 79.2711 256.46 79.5376 256.805 79.9918C257.148 80.4437 257.249 80.8554 257.273 81.0288L247.368 82.403C247.757 85.2075 249.432 87.3247 251.808 88.3366C253.767 89.1707 255.749 89.0644 256.981 88.8935L255.607 78.9884ZM257.273 81.0288C257.258 80.9211 257.295 81.0801 257.22 81.392C257.184 81.5436 257.129 81.6944 257.061 81.8352C256.994 81.9735 256.927 82.0745 256.883 82.1348C256.841 82.1911 256.822 82.2079 256.853 82.1748C256.889 82.1375 256.948 82.078 257.071 81.9615C257.135 81.9008 257.192 81.8476 257.277 81.768C257.354 81.6952 257.445 81.6094 257.54 81.5173C257.731 81.3328 257.963 81.1027 258.206 80.8348L250.81 74.1052C250.682 74.2457 250.575 74.3401 250.192 74.7036C249.888 74.9917 249.336 75.5185 248.829 76.2066C247.563 77.9264 247.034 79.9981 247.368 82.403L257.273 81.0288ZM258.217 80.8231C259.065 79.885 259.697 79.0897 260.036 78.6771C260.123 78.5704 260.179 78.5045 260.216 78.4617C260.257 78.4146 260.241 78.4348 260.188 78.4884C260.15 78.5265 259.969 78.7073 259.675 78.9117C259.519 79.02 259.281 79.1702 258.968 79.3128C258.655 79.4552 258.207 79.617 257.648 79.6945L256.274 69.7894C255.127 69.9487 254.325 70.4522 253.972 70.6973C253.574 70.9733 253.279 71.2551 253.112 71.4221C252.787 71.748 252.484 72.1155 252.308 72.3309C251.874 72.8583 251.443 73.4043 250.799 74.1169L258.217 80.8231ZM257.648 79.6945C256.372 79.8716 255.282 79.5236 254.512 79.0652C253.567 78.5031 252.443 77.3565 252.195 75.5699L262.1 74.1956C261.837 72.3001 260.647 71.0793 259.626 70.4721C258.781 69.9687 257.605 69.6048 256.274 69.7894L257.648 79.6945ZM252.195 75.5699C252.116 75.0043 252.155 74.5492 252.187 74.2966C252.222 74.0212 252.276 73.8013 252.316 73.6554C252.396 73.368 252.486 73.1605 252.537 73.0508C252.643 72.8231 252.744 72.6743 252.814 72.5808L260.79 78.6131C261.095 78.2094 261.376 77.758 261.6 77.278C261.71 77.0421 261.843 76.721 261.95 76.3379C262.02 76.0853 262.246 75.2498 262.1 74.1956L252.195 75.5699ZM253.024 72.3222C251.285 74.3291 249.952 77.0109 250.395 80.2062L260.3 78.832C260.313 78.9234 260.314 79.0241 260.303 79.123C260.291 79.2204 260.271 79.2855 260.261 79.3109C260.246 79.3519 260.292 79.2043 260.581 78.8717L253.024 72.3222ZM250.395 80.2062C250.645 82.0058 251.513 83.8196 253.147 85.0978C254.799 86.3912 256.817 86.8062 258.71 86.5437L257.336 76.6386C257.812 76.5725 258.59 76.6598 259.309 77.2221C260.008 77.7693 260.247 78.4488 260.3 78.832L250.395 80.2062ZM258.71 86.5437C260.155 86.3431 261.396 85.7154 262.289 85.1634C263.249 84.5705 264.186 83.8258 265.072 83.0162C266.848 81.3938 268.704 79.2475 270.463 76.7804L262.321 70.9752C260.873 73.0066 259.471 74.5884 258.327 75.6338C257.753 76.1581 257.315 76.4822 257.032 76.6568C256.684 76.8722 256.816 76.7106 257.336 76.6386L258.71 86.5437ZM270.462 76.782C274.061 71.7385 275.685 67.4588 276.881 64.8887L267.815 60.6693C266.359 63.7977 265.231 66.8962 262.322 70.9736L270.462 76.782ZM276.892 64.8664C277.535 63.4673 277.939 62.0779 278.155 61.4243C278.429 60.5934 278.489 60.6343 278.356 60.7943L270.676 54.3895C269.495 55.8053 268.962 57.3722 268.66 58.2872C268.299 59.3793 268.143 59.9556 267.805 60.6916L276.892 64.8664ZM278.504 60.608C278.329 60.8391 278.181 60.9832 278.131 61.0316C278.069 61.0908 278.034 61.1179 278.042 61.1118C278.06 61.0973 278.14 61.0364 278.293 60.9357C278.6 60.7346 279.003 60.5035 279.378 60.318L274.942 51.3558C274.226 51.7103 273.471 52.1395 272.811 52.5724C272.372 52.8598 271.28 53.5816 270.528 54.5757L278.504 60.608ZM279.378 60.318C279.802 60.108 280.161 59.8834 280.464 59.6664C280.756 59.4569 280.981 59.2646 281.074 59.1846C281.103 59.1601 281.109 59.1552 281.12 59.1459C281.127 59.1396 281.12 59.1454 281.106 59.157C281.084 59.1753 280.987 59.2548 280.843 59.3522C280.55 59.5516 279.882 59.9518 278.916 60.0859L277.541 50.1808C276.439 50.3338 275.647 50.7929 275.225 51.0795C275.018 51.2205 274.855 51.3508 274.764 51.4254C274.68 51.4945 274.592 51.5699 274.577 51.5826C274.51 51.6398 274.688 51.4813 274.942 51.3558L279.378 60.318ZM278.916 60.0859C278.421 60.1546 277.66 60.1773 276.792 59.8957C275.87 59.5966 275.117 59.0481 274.574 58.399C273.666 57.3126 273.549 56.1863 273.539 56.1171L283.444 54.7429C283.404 54.4558 283.237 53.1698 282.246 51.9839C280.844 50.3081 278.898 49.9926 277.541 50.1808L278.916 60.0859ZM273.539 56.1171C273.464 55.5783 273.502 55.1597 273.524 54.9736C273.549 54.7613 273.583 54.6092 273.599 54.5457C273.628 54.4262 273.644 54.3942 273.604 54.5074C273.523 54.7336 273.384 55.0783 273.144 55.6603C272.701 56.7375 272.039 58.3271 271.447 60.1243L280.944 63.2557C281.406 61.8525 281.931 60.5845 282.391 59.468C282.603 58.9532 282.844 58.367 283.022 57.8684C283.111 57.6192 283.227 57.2764 283.317 56.9026C283.371 56.6799 283.591 55.8017 283.444 54.7429L273.539 56.1171ZM271.444 60.1311C269.574 65.8316 268.466 72.7807 269.105 77.3883L279.01 76.014C278.667 73.5394 279.304 68.2526 280.946 63.2489L271.444 60.1311ZM269.105 77.3883C269.382 79.3819 270.366 81.3213 272.286 82.4954C273.986 83.5357 275.695 83.5208 276.651 83.3882L275.277 73.4831C275.688 73.426 276.561 73.3883 277.504 73.9647C278.665 74.6748 278.968 75.7092 279.01 76.014L269.105 77.3883ZM276.651 83.3882C278.941 83.0705 280.834 81.728 282.175 80.5312C283.638 79.226 285.083 77.5143 286.474 75.5308L278.288 69.7871C277.177 71.3715 276.229 72.4347 275.518 73.0693C275.166 73.3831 274.938 73.5331 274.84 73.5888C274.727 73.6524 274.885 73.5375 275.277 73.4831L276.651 83.3882ZM286.454 75.56C288.115 73.2277 291.6 67.8878 293.71 63.4057L284.663 59.1459C282.913 62.862 279.808 67.6538 278.309 69.758L286.454 75.56ZM293.73 63.3632C294.274 62.178 294.845 60.6809 295.215 59.7814C295.427 59.2633 295.605 58.856 295.763 58.5359C295.932 58.195 296.008 58.095 295.984 58.1273L288.008 52.0951C287.068 53.3377 286.395 54.9347 285.965 55.9813C285.421 57.3047 285.08 58.2385 284.643 59.1884L293.73 63.3632ZM295.984 58.1273C295.823 58.3404 295.69 58.4633 295.648 58.5007C295.602 58.5418 295.598 58.5399 295.661 58.4952C295.722 58.4523 295.821 58.3862 295.971 58.2955C296.119 58.2056 296.301 58.1006 296.523 57.9787L291.713 49.2117C290.72 49.7564 289.069 50.6919 288.008 52.0951L295.984 58.1273ZM296.595 57.9384C296.626 57.9209 296.709 57.8765 296.848 57.8125C296.981 57.7515 297.128 57.6893 297.269 57.6334C297.414 57.5764 297.524 57.5377 297.58 57.5192C297.609 57.5095 297.599 57.5137 297.556 57.5254C297.534 57.5314 297.487 57.544 297.421 57.559C297.364 57.572 297.236 57.5997 297.064 57.6235L295.69 47.7184C295.119 47.7977 294.595 47.9739 294.456 48.0197C294.184 48.1092 293.89 48.2167 293.6 48.3309C293.053 48.5467 292.314 48.8677 291.641 49.2521L296.595 57.9384ZM297.064 57.6235C296.257 57.7356 295.383 57.6402 294.553 57.2837C293.747 56.9379 293.169 56.4277 292.784 55.9608C292.069 55.0932 291.878 54.2264 291.82 53.803L301.725 52.4288C301.628 51.7331 301.349 50.6287 300.5 49.5992C299.498 48.3843 297.768 47.4302 295.69 47.7184L297.064 57.6235ZM291.82 53.803C291.698 52.9274 291.85 52.2497 291.925 51.9662C292.01 51.6418 292.11 51.414 292.151 51.3251C292.229 51.1554 292.277 51.0919 292.195 51.2229C291.995 51.5456 291.837 51.7632 291.368 52.4854C290.609 53.6562 289.496 55.4719 288.74 57.6595L298.19 60.9286C298.543 59.9083 299.122 58.9073 299.758 57.9272C299.987 57.574 300.452 56.8826 300.691 56.4971C300.83 56.2739 301.052 55.9065 301.244 55.4874C301.341 55.2737 301.484 54.9348 301.595 54.5135C301.695 54.1331 301.856 53.3725 301.725 52.4288L291.82 53.803ZM288.742 57.6528C287.822 60.2988 286.82 63.1931 286.124 65.8964C285.454 68.496 284.895 71.5279 285.281 74.3112L295.186 72.937C295.081 72.1791 295.205 70.7296 295.807 68.3914C296.383 66.1566 297.242 63.6566 298.188 60.9353L288.742 57.6528Z" fill="black" mask="url(#path-2-outside-1_38_7)"/>
<defs>
<linearGradient id="paint0_linear_38_7" x1="37" y1="57" x2="362.5" y2="11.5" gradientUnits="userSpaceOnUse">
<stop stop-color="#AE62F6"/>
<stop offset="1" stop-color="#BC76FF"/>
</linearGradient>
</defs>
</svg>
